<?xml version="1.0" encoding="UTF-8" standalone="no"?>
<svg
   xmlns:dc="http://purl.org/dc/elements/1.1/"
   xmlns:cc="http://creativecommons.org/ns#"
   xmlns:rdf="http://www.w3.org/1999/02/22-rdf-syntax-ns#"
   xmlns:svg="http://www.w3.org/2000/svg"
   xmlns="http://www.w3.org/2000/svg"
   xmlns:sodipodi="http://sodipodi.sourceforge.net/DTD/sodipodi-0.dtd"
   xmlns:inkscape="http://www.inkscape.org/namespaces/inkscape"
   version="1.1"
   id="Layer_1"
   x="0px"
   y="0px"
   viewBox="0 0 721 720"
   style="enable-background:new 0 0 721 720;"
   xml:space="preserve"
   sodipodi:docname="oreo-secondary.svg"
   inkscape:version="0.92.2 (5c3e80d, 2017-08-06)"><metadata
     id="metadata214"><rdf:RDF><cc:Work
         rdf:about=""><dc:format>image/svg+xml</dc:format><dc:type
           rdf:resource="http://purl.org/dc/dcmitype/StillImage" /></cc:Work></rdf:RDF></metadata><defs
     id="defs212" /><sodipodi:namedview
     pagecolor="#ffffff"
     bordercolor="#666666"
     borderopacity="1"
     objecttolerance="10"
     gridtolerance="10"
     guidetolerance="10"
     inkscape:pageopacity="0"
     inkscape:pageshadow="2"
     inkscape:window-width="1360"
     inkscape:window-height="706"
     id="namedview210"
     showgrid="false"
     inkscape:zoom="0.32777778"
     inkscape:cx="360.5"
     inkscape:cy="360"
     inkscape:window-x="-8"
     inkscape:window-y="-8"
     inkscape:window-maximized="1"
     inkscape:current-layer="Layer_1" /><style
     type="text/css"
     id="style2">
	.st0{fill:#221E1F;}
	.st1{fill:#262324;}
</style><g
     id="_x32_---updated-8_x2F_11"
     style="fill:#000000"><g
       id="Large-Copy"
       transform="translate(-594.000000, -2477.000000)"
       style="fill:#000000"><g
         id="oreo-official-top-copy-4"
         transform="translate(594.000000, 2477.000000)"
         style="fill:#000000"><path
           id="Shape_1_"
           class="st1"
           d="M367.9,270.9v-26.6h61c3.7,0,6.7-3,6.7-6.7v-1.3c0-3.7-3-6.7-6.7-6.7h-61v-11.7h39.6     c3.7,0,6.7-3,6.7-6.7v-1.3c0-3.7-3-6.7-6.7-6.7h-39.6v-10.6c0-3.7-3-6.7-6.7-6.7h-1.3c-3.7,0-6.7,3-6.7,6.7v10.5h-39.6     c-3.7,0-6.7,3-6.7,6.7v1.3c0,3.7,3,6.7,6.7,6.7h39.6v11.7h-61.1c-3.7,0-6.7,3-6.7,6.7v1.3c0,3.7,3,6.7,6.7,6.7h61v26.6H367.9z"
           style="fill:#000000" /><path
           id="Shape_2_"
           class="st1"
           d="M233.8,355.5c0-31.8,13.7-35.6,28-35.6c14.2,0,28,3.7,28,35.6v18.3c0,32.7-12.2,37-28,37     s-28-4.3-28-37V355.5z M251.7,373.9c0,21.2,3.3,24.3,10.2,24.3s10.2-3,10.2-24.3v-18.3c0-18.7-3.3-22.9-10.2-22.9     s-10.2,4.1-10.2,22.9V373.9z"
           style="fill:#000000" /><path
           id="Shape_3_"
           class="st1"
           d="M385,394.4h26.1c6.4,0,8.9,3.3,8.9,7.2c0,4-2.5,7.2-8.9,7.2h-34c-6.2,0-9.2-2.6-9.2-8.7v-69.5     c0-6,2.9-8.7,9.2-8.7h33.2c6.3,0,8.9,3.3,8.9,7.2c0,4-2.5,7.3-8.9,7.3H385v20h23.7c6.4,0,8.9,3.3,8.9,7.2c0,4-2.5,7.3-8.9,7.3     H385V394.4z"
           style="fill:#000000" /><path
           id="Shape_4_"
           class="st1"
           d="M429.6,355.5c0-31.8,13.7-35.6,28-35.6c14.2,0,28,3.7,28,35.6v18.3c0,32.7-12.2,37-28,37     c-15.8,0-28-4.3-28-37V355.5z M447.4,373.9c0,21.2,3.3,24.3,10.2,24.3c6.9,0,10.2-3,10.2-24.3v-18.3c0-18.7-3.3-22.9-10.2-22.9     c-6.9,0-10.2,4.1-10.2,22.9V373.9z"
           style="fill:#000000" /><path
           id="Shape_5_"
           class="st1"
           d="M341.9,366.1c1.3-0.8,3.5-2.3,4.1-2.5c1.1-0.7,2.2-1.6,3.3-2.5c4-3.3,5.8-8.3,5.8-16.6     c0-12.3-5.2-22.3-20.6-22.3H311c-6.2,0-9.2,2.6-9.2,8.7V402c0.3,4.5,4,8,8.5,8c4.5,0,8.2-3.5,8.5-8v-31.1h7.2h1.4l12.1,33     c2.1,5.7,6,7,10.1,5.6c4.1-1.3,6.5-4.6,4.3-10.4L341.9,366.1z M325.6,358.9h-6.5v-24.6h7.4c8.1,0,10.9,3.6,10.9,12.3     C337.4,356,332.5,358.8,325.6,358.9L325.6,358.9z"
           style="fill:#000000" /><path
           id="Shape_6_"
           class="st1"
           d="M360.6,465.6c-44.6,0-86.6-10.2-118.3-28.8c-33-19.3-51.1-45.3-51.1-73.4     c0-28,18.1-54.1,51.2-73.4c31.6-18.5,73.6-28.7,118.2-28.7s86.6,10.2,118.3,28.8c33,19.2,51.1,45.2,51.1,73.3     c0,28-18.2,54.1-51.1,73.4C447.1,455.4,405.1,465.6,360.6,465.6 M360.5,276.1c-85.3,0-154.7,39.2-154.7,87.3     s69.4,87.3,154.7,87.3s154.7-39.2,154.7-87.3S445.8,276.1,360.5,276.1"
           style="fill:#000000" /><path
           id="Shape_7_"
           class="st1"
           d="M391.4,691.4l-1.6-22.4c0.3-3-1.3-6-4-7.4s-6-1.2-8.4,0.6s-3.6,5-2.9,7.9l1.6,22.4     c0,4.6,3.6,8.3,8.2,8.4l0,0C388.8,700.2,391.9,696,391.4,691.4"
           style="fill:#000000" /><path
           id="Shape_8_"
           class="st1"
           d="M414.4,688.5l-3.3-22.2c0-3-1.7-5.8-4.5-7.1s-6-0.8-8.3,1.2c-2.3,2-3.2,5.2-2.4,8.1l3.3,22.2     c0.3,4.5,4.2,8,8.8,7.8l0,0C412.4,697.4,415.2,693,414.4,688.5"
           style="fill:#000000" /><path
           id="Shape_9_"
           class="st1"
           d="M437.2,683.9l-4.7-21.9c-0.2-3-2.2-5.7-5-6.7c-2.8-1.1-6.1-0.4-8.2,1.8     c-2.1,2.2-2.8,5.4-1.7,8.2l4.7,21.9c0.6,4.5,4.7,7.7,9.3,7.2l0,0C435.9,693,438.4,688.4,437.2,683.9"
           style="fill:#000000" /><path
           id="Shape_10_"
           class="st1"
           d="M459.6,677.8l-6.2-21.6c-0.4-3-2.5-5.6-5.4-6.5c-2.9-0.9-6.1,0-8.1,2.3     c-2,2.3-2.5,5.6-1.2,8.4l6.2,21.6c0.9,4.5,5.3,7.4,9.8,6.5l0,0C459,686.9,461.2,682.2,459.6,677.8"
           style="fill:#000000" /><path
           id="Shape_11_"
           class="st1"
           d="M481.5,670l-7.7-21.1c-0.6-3-2.9-5.4-5.9-6.1s-6.1,0.4-7.9,2.9c-1.8,2.4-2.1,5.7-0.6,8.4     l7.7,21.1c1.2,4.4,5.8,7,10.2,5.8l0,0C481.5,679.1,483.3,674.2,481.5,670"
           style="fill:#000000" /><path
           id="Shape_12_"
           class="st1"
           d="M502.9,660.9l-9.1-20.5c-0.8-3-3.2-5.2-6.3-5.7c-3-0.5-6.1,0.9-7.7,3.5     c-1.7,2.6-1.6,5.9,0,8.5l9.1,20.5c1.6,4.3,6.2,6.5,10.6,5.1l0,0c4-2.2,5.4-7.2,3.3-11.2"
           style="fill:#000000" /><path
           id="Shape_13_"
           class="st1"
           d="M523.5,650.4l-10.5-19.8c-1-2.9-3.6-4.9-6.6-5.1c-3-0.3-5.9,1.3-7.4,3.9     c-1.5,2.7-1.3,5.9,0.5,8.4l10.6,19.8c1.9,4.2,6.7,6.1,10.9,4.3l0,0C524.7,659.4,525.9,654.3,523.5,650.4"
           style="fill:#000000" /><path
           id="Shape_14_"
           class="st1"
           d="M543.4,638.2l-11.9-19.1c-1.3-2.7-4-4.5-7-4.5c-3,0-5.7,1.7-7,4.4c-1.3,2.7-1,5.9,0.9,8.2     l11.9,19c2.1,4,7.1,5.6,11.2,3.5l0,0c3.7-2.7,4.4-7.9,1.8-11.6"
           style="fill:#000000" /><path
           id="Shape_15_"
           class="st1"
           d="M562.3,624.7l-13.1-18.2c-1.4-2.7-4.3-4.4-7.3-4.2c-3.1,0.2-5.7,2.1-6.8,5s-0.4,6.1,1.7,8.3     l13.1,18.2c2.4,3.9,7.5,5.1,11.4,2.7l0,0C564.8,633.5,565.2,628.3,562.3,624.7"
           style="fill:#000000" /><path
           id="Shape_16_"
           class="st1"
           d="M580.3,610l-14.3-17.2c-1.6-2.6-4.5-4.1-7.6-3.7c-3,0.4-5.6,2.5-6.5,5.4s0,6.1,2.3,8.1     l14.4,17.2c2.7,3.7,7.8,4.6,11.5,2l0,0C583.4,618.5,583.4,613.3,580.3,610"
           style="fill:#000000" /><path
           id="Shape_17_"
           class="st1"
           d="M597.2,594.1l-15.6-16.1c-1.8-2.5-4.8-3.7-7.8-3.1c-3,0.6-5.3,2.9-6,5.8     c-0.7,3,0.4,6.1,2.8,7.9l15.6,16c2.9,3.5,8.1,4,11.6,1.1l0,0C600.9,602.4,600.5,597.1,597.2,594.1"
           style="fill:#000000" /><path
           id="Shape_18_"
           class="st1"
           d="M613,577l-16.7-15c-1.9-2.4-5.1-3.4-8-2.6c-3,0.8-5.2,3.3-5.6,6.3c-0.5,3,0.9,6,3.4,7.7     l16.7,15c3.2,3.3,8.4,3.4,11.7,0.3l0,0C617.2,585,616.5,579.8,613,577"
           style="fill:#000000" /><path
           id="Shape_19_"
           class="st1"
           d="M627.5,558.9l-17.7-13.8c-2.1-2.2-5.3-3-8.2-2s-4.9,3.6-5.2,6.7c-0.3,3,1.3,6,4,7.4     l17.7,13.8c3.4,3,8.6,2.8,11.7-0.5l0,0C632.3,566.6,631.2,561.5,627.5,558.9"
           style="fill:#000000" /><path
           id="Shape_20_"
           class="st1"
           d="M640.7,539.7l-18.6-12.6c-2.2-2-5.5-2.6-8.3-1.4c-2.8,1.2-4.6,3.9-4.7,7     c-0.1,3,1.7,5.8,4.4,7.1l18.6,12.5c3.6,2.8,8.8,2.2,11.7-1.3l0,0C646,547.1,644.7,542.1,640.7,539.7"
           style="fill:#000000" /><path
           id="Shape_21_"
           class="st1"
           d="M652.6,519.7l-19.4-11.2c-2.4-1.9-5.7-2.3-8.4-0.9c-2.7,1.4-4.4,4.2-4.2,7.3     c0.2,3.1,2.1,5.7,4.9,6.8l19.4,11.2c3.8,2.6,8.9,1.6,11.5-2.1l0,0C658.4,526.6,656.7,521.7,652.6,519.7"
           style="fill:#000000" /><path
           id="Shape_22_"
           class="st1"
           d="M663,499l-20.2-9.8c-2.5-1.7-5.8-1.9-8.4-0.3c-2.6,1.6-4.1,4.5-3.7,7.6     c0.4,3,2.5,5.6,5.4,6.5l20.2,9.8c3.9,2.3,9,1,11.3-2.9l0,0C669.3,505.6,667.2,500.8,663,499"
           style="fill:#000000" /><path
           id="Shape_23_"
           class="st1"
           d="M672,477.5l-20.8-8.4c-2.6-1.6-5.9-1.5-8.4,0.3c-2.5,1.8-3.7,4.8-3.2,7.8     c0.6,3,2.9,5.4,5.8,6.1l20.8,8.4c4.1,2,9.1,0.4,11.1-3.7l0,0C678.7,483.7,676.3,479,672,477.5"
           style="fill:#000000" /><path
           id="Shape_24_"
           class="st1"
           d="M679.4,455.5l-21.3-7c-2.7-1.3-6-1-8.3,0.9c-2.4,1.9-3.4,5-2.6,8c0.8,2.9,3.2,5.2,6.2,5.7     l21.3,6.9c4.2,1.7,9.1-0.3,10.9-4.4l0,0C686.5,461.2,683.8,456.7,679.4,455.5"
           style="fill:#000000" /><path
           id="Shape_25_"
           class="st1"
           d="M685.3,433.1l-21.8-5.5c-2.8-1.2-6.1-0.6-8.3,1.4c-2.2,2.1-3,5.3-2,8.2     c1,2.9,3.6,4.9,6.7,5.2l21.8,5.4c4.3,1.4,9-0.9,10.5-5.2l0,0C692.8,438.1,689.8,433.9,685.3,433.1"
           style="fill:#000000" /><path
           id="Shape_26_"
           class="st1"
           d="M689.6,410.2l-22.1-3.9c-2.9-1-6.1-0.2-8.2,2c-2.1,2.2-2.7,5.5-1.5,8.3s3.9,4.7,7,4.7     l22.1,3.9c4.4,1.1,8.9-1.5,10.1-5.9l0,0C697.5,414.8,694.2,410.8,689.6,410.2"
           style="fill:#000000" /><path
           id="Shape_27_"
           class="st1"
           d="M692.3,387.1l-22.3-2.4c-3-0.8-6.1,0.2-8.1,2.6c-1.9,2.4-2.3,5.7-0.9,8.4s4.3,4.4,7.4,4.2     l22.3,2.4c4.5,0.9,8.9-2,9.8-6.5l0,0c0.1-4.6-3.5-8.4-8.1-8.5"
           style="fill:#000000" /><path
           id="Shape_28_"
           class="st1"
           d="M693.4,363.9l-22.4-0.8c-3-0.6-6.1,0.7-7.8,3.2c-1.8,2.5-1.9,5.8-0.3,8.4s4.5,4.1,7.6,3.7     l22.4,0.8c4.5,0.5,8.6-2.7,9.2-7.3l0,0C701.8,367.4,698,363.8,693.4,363.9"
           style="fill:#000000" /><path
           id="Shape_29_"
           class="st1"
           d="M692.8,340.7l-22.4,0.8c-3-0.4-6,1.1-7.6,3.7s-1.4,5.9,0.3,8.4c1.8,2.5,4.8,3.7,7.8,3.2     l22.4-0.8c4.6,0.2,8.4-3.4,8.7-7.9l0,0C701.5,343.6,697.4,340.3,692.8,340.7"
           style="fill:#000000" /><path
           id="Shape_30_"
           class="st1"
           d="M690.7,317.5l-22.3,2.4c-3-0.1-5.9,1.5-7.3,4.2c-1.4,2.7-1,6,0.9,8.4s5,3.4,8,2.6l22.3-2.4     c4.5-0.2,8.1-3.9,8.1-8.5l0,0c-0.9-4.5-5.3-7.4-9.8-6.5"
           style="fill:#000000" /><path
           id="Shape_31_"
           class="st1"
           d="M686.9,294.6l-22.1,3.9c-3.1,0-5.8,1.9-7,4.7c-1.2,2.8-0.6,6.1,1.5,8.3c2.1,2.2,5.3,3,8.2,2     l22.1-3.9c4.5-0.4,7.9-4.4,7.5-9l0,0C695.9,296.3,691.4,293.6,686.9,294.6"
           style="fill:#000000" /><path
           id="Shape_32_"
           class="st1"
           d="M681.6,272l-21.8,5.4c-3,0.3-5.7,2.3-6.6,5.2s-0.2,6.1,2.1,8.2c2.2,2.1,5.5,2.7,8.3,1.4     l21.8-5.4c4.5-0.8,7.5-5,6.8-9.5l0,0C690.7,273,686,270.7,681.6,272"
           style="fill:#000000" /><path
           id="Shape_33_"
           class="st1"
           d="M674.7,249.8l-21.3,7c-3.1,0.4-5.6,2.6-6.4,5.6c-0.8,3,0.2,6.2,2.7,8.1     c2.4,1.9,5.8,2.2,8.5,0.7l21.3-6.9c4.3-1.1,7.1-5.4,6.1-9.8l0,0c-1.8-4.2-6.6-6.2-10.9-4.5"
           style="fill:#000000" /><path
           id="Shape_34_"
           class="st1"
           d="M666.2,228.2l-20.8,8.4c-3,0.7-5.3,3.1-5.8,6.1c-0.6,3,0.7,6.1,3.2,7.8     c2.5,1.8,5.8,1.9,8.4,0.3l20.8-8.4c4.3-1.4,6.7-6,5.5-10.3l0,0C675.3,228,670.4,226.3,666.2,228.2"
           style="fill:#000000" /><path
           id="Shape_35_"
           class="st1"
           d="M656.3,207.2l-20.2,9.8c-2.9,0.9-5,3.4-5.4,6.5s1.1,6,3.7,7.6c2.6,1.6,5.9,1.5,8.4-0.3     l20.2-9.8c4.2-1.7,6.3-6.5,4.7-10.8l0,0C665.3,206.3,660.2,205,656.3,207.2"
           style="fill:#000000" /><path
           id="Shape_36_"
           class="st1"
           d="M644.9,186.9l-19.4,11.2c-2.8,1.1-4.8,3.8-4.9,6.8s1.5,5.9,4.2,7.3c2.7,1.4,6,1.1,8.4-0.8     l19.4-11.2c4.1-2,5.9-6.9,4-11l0,0C653.9,185.4,648.8,184.4,644.9,186.9"
           style="fill:#000000" /><path
           id="Shape_37_"
           class="st1"
           d="M632.2,167.5l-18.6,12.6c-2.7,1.4-4.3,4.1-4.2,7.1s1.9,5.7,4.6,6.9c2.7,1.2,5.9,0.7,8.2-1.2     l18.6-12.6c4-2.2,5.4-7.3,3.3-11.3l0,0c-2.9-3.6-8.1-4.2-11.7-1.3"
           style="fill:#000000" /><path
           id="Shape_38_"
           class="st1"
           d="M618.2,149l-17.7,13.8c-2.7,1.5-4.2,4.4-4,7.4s2.3,5.7,5.2,6.7s6.1,0.2,8.2-2l17.7-13.8     c3.8-2.6,4.8-7.6,2.4-11.5l0,0C626.9,146.3,621.6,146,618.2,149"
           style="fill:#000000" /><path
           id="Shape_39_"
           class="st1"
           d="M602.7,131.6l-16.7,15c-2.6,1.7-3.9,4.7-3.4,7.7c0.5,3,2.7,5.5,5.6,6.3c3,0.8,6.1-0.2,8-2.6     l16.7-15c3.6-2.8,4.3-8,1.5-11.6l0,0C611.1,128.2,605.9,128.4,602.7,131.6"
           style="fill:#000000" /><path
           id="Shape_40_"
           class="st1"
           d="M586.2,115.2l-15.6,16.1c-2.4,1.8-3.6,5-2.9,7.9s3.1,5.3,6.1,5.9c3,0.6,6.1-0.7,7.8-3.2     l15.6-16.1c3.4-3.1,3.7-8.2,0.8-11.7l0,0C594.4,111.3,589.2,111.8,586.2,115.2"
           style="fill:#000000" /><path
           id="Shape_41_"
           class="st1"
           d="M568.6,100.1l-14.4,17.2c-2.4,2-3.3,5.2-2.4,8.1s3.4,5.1,6.5,5.5s6.1-1.1,7.6-3.8l14.4-17.2     c3.2-3.2,3.2-8.5,0-11.7l0,0C576.5,95.6,571.3,96.4,568.6,100.1"
           style="fill:#000000" /><path
           id="Shape_42_"
           class="st1"
           d="M550,86.2l-13.1,18.1c-2.2,2.2-2.8,5.4-1.7,8.3s3.8,4.8,6.8,5c3.1,0.2,5.9-1.5,7.3-4.2     l13.1-18.1c2.9-3.5,2.5-8.7-0.9-11.7l0,0C557.6,81.2,552.5,82.4,550,86.2"
           style="fill:#000000" /><path
           id="Shape_43_"
           class="st1"
           d="M530.4,73.7l-11.9,19c-1.9,2.3-2.2,5.5-0.9,8.2c1.3,2.7,4,4.4,7,4.4c3,0,5.7-1.8,7-4.5     l11.8-19.1c2.7-3.7,1.9-8.8-1.7-11.6l0,0C537.6,68,532.6,69.6,530.4,73.7"
           style="fill:#000000" /><path
           id="Shape_44_"
           class="st1"
           d="M510,62.5l-10.6,19.8c-1.8,2.4-2,5.7-0.5,8.4c1.5,2.7,4.4,4.2,7.4,3.9c3-0.3,5.6-2.3,6.6-5.1     l10.5-19.8c2.4-3.9,1.3-8.9-2.5-11.4l0,0C516.8,56.5,511.9,58.4,510,62.5"
           style="fill:#000000" /><path
           id="Shape_45_"
           class="st1"
           d="M488.9,52.8l-9.2,20.5c-1.7,2.6-1.7,5.9,0,8.4c1.7,2.6,4.7,3.9,7.7,3.4     c3-0.5,5.5-2.7,6.3-5.6l9.1-20.5c2.1-4,0.7-9-3.3-11.2l0,0C495.3,46.3,490.6,48.5,488.9,52.8"
           style="fill:#000000" /><path
           id="Shape_46_"
           class="st1"
           d="M467.2,44.6l-7.7,21.1c-1.5,2.7-1.2,6,0.6,8.4c1.8,2.4,4.9,3.6,7.9,2.9s5.3-3.1,5.9-6.1     l7.7-21.1c1.8-4.2,0-9-4.1-11l0,0C473,37.7,468.5,40.2,467.2,44.6"
           style="fill:#000000" /><path
           id="Shape_47_"
           class="st1"
           d="M445,37.9l-6.2,21.6c-1.3,2.8-0.8,6,1.2,8.4c2,2.3,5.2,3.2,8.1,2.3c2.9-0.9,5.1-3.4,5.4-6.5     l6.2-21.6c1.5-4.3-0.6-9.1-4.9-10.7l0,0C450.3,30.6,445.9,33.5,445,37.9"
           style="fill:#000000" /><path
           id="Shape_48_"
           class="st1"
           d="M422.1,32.7l-4.7,22c-1.1,2.8-0.4,6.1,1.7,8.2s5.4,2.9,8.2,1.8c2.9-1.1,4.8-3.7,5-6.7l4.7-22     c1.3-4.4-1.2-8.9-5.6-10.3l0,0C427.1,25,422.8,28.1,422.1,32.7"
           style="fill:#000000" /><path
           id="Shape_49_"
           class="st1"
           d="M399.3,29.4L396,51.6c-0.9,2.9,0,6.1,2.3,8.2c2.3,2,5.6,2.5,8.4,1.2s4.5-4.1,4.4-7.2     l3.3-22.2c0.9-4.4-1.9-8.8-6.3-9.8l0,0C403.6,21.5,399.6,24.9,399.3,29.4"
           style="fill:#000000" /><path
           id="Shape_50_"
           class="st1"
           d="M376.1,27.4l-1.6,22.4c-0.6,3,0.5,6,2.9,7.8c2.4,1.8,5.7,2,8.4,0.6s4.2-4.3,4-7.4l1.6-22.4     c0.6-4.5-2.4-8.7-6.9-9.4l0,0C379.9,19.1,376.2,22.9,376.1,27.4"
           style="fill:#000000" /><path
           id="Shape_51_"
           class="st1"
           d="M352.8,27.2v22.5c-0.4,3,0.9,6,3.5,7.6c2.6,1.6,5.8,1.6,8.4,0c2.6-1.6,3.9-4.6,3.5-7.6V27.2     c0.3-4.5-3.1-8.5-7.6-8.9l0,0C356,18.6,352.6,22.6,352.8,27.2"
           style="fill:#000000" /><path
           id="Shape_52_"
           class="st1"
           d="M329.6,28.5l1.6,22.4c-0.3,3,1.3,6,3.9,7.5c2.7,1.5,6,1.3,8.4-0.6c2.4-1.8,3.6-4.9,2.9-7.9     l-1.6-22.4c0-4.6-3.6-8.3-8.2-8.4l0,0C332.2,19.8,329.1,24,329.6,28.5"
           style="fill:#000000" /><path
           id="Shape_53_"
           class="st1"
           d="M306.6,31.4l3.3,22.3c0,3,1.7,5.8,4.5,7.1c2.8,1.3,6,0.8,8.3-1.2c2.3-2,3.2-5.2,2.3-8.1     l-3.3-22.1c-0.3-4.5-4.2-8-8.8-7.8l0,0C308.6,22.6,305.8,27,306.6,31.4"
           style="fill:#000000" /><path
           id="Shape_54_"
           class="st1"
           d="M283.8,36l4.7,22c0.2,3,2.2,5.7,5,6.7c2.8,1.1,6.1,0.4,8.2-1.8c2.1-2.2,2.8-5.4,1.7-8.2     l-4.7-22c-0.6-4.5-4.8-7.7-9.3-7.2l0,0C285.1,26.8,282.5,31.5,283.8,36"
           style="fill:#000000" /><path
           id="Shape_55_"
           class="st1"
           d="M261.4,42.1l6.2,21.6c0.4,3,2.5,5.6,5.4,6.5c2.9,0.9,6.1,0,8.1-2.3c2-2.3,2.5-5.6,1.2-8.4     l-6.2-21.6c-0.9-4.5-5.3-7.4-9.8-6.5l0,0C262.1,33,259.9,37.8,261.4,42.1"
           style="fill:#000000" /><path
           id="Shape_56_"
           class="st1"
           d="M239.5,49.8l7.6,21.1c0.6,3,2.9,5.4,5.9,6.1s6.1-0.4,7.9-2.9c1.8-2.4,2.1-5.7,0.6-8.4     l-7.7-21.1c-1.3-4.4-5.8-7-10.2-5.8l0,0C239.5,40.7,237.7,45.6,239.5,49.8"
           style="fill:#000000" /><path
           id="Shape_57_"
           class="st1"
           d="M218.2,59l9.1,20.5c0.8,3,3.2,5.2,6.3,5.6c3,0.5,6-0.9,7.7-3.4c1.7-2.6,1.7-5.9,0-8.4     l-9.2-20.5c-1.6-4.3-6.2-6.5-10.6-5.1l0,0c-4,2.2-5.4,7.2-3.3,11.2"
           style="fill:#000000" /><path
           id="Shape_58_"
           class="st1"
           d="M197.5,69.7L208,89.5c1,2.9,3.6,4.9,6.6,5.1s5.9-1.3,7.4-3.9c1.5-2.7,1.3-5.9-0.5-8.4     L211,62.6c-1.9-4.2-6.7-6.1-10.9-4.3l0,0C196.2,60.7,195.1,65.8,197.5,69.7"
           style="fill:#000000" /><path
           id="Shape_59_"
           class="st1"
           d="M177.7,81.7l11.9,19.1c1.3,2.7,4,4.4,7,4.4c3,0,5.7-1.7,7-4.3c1.3-2.7,1-5.8-0.9-8.2     l-11.9-19c-2.1-4-7.1-5.6-11.1-3.6l0,0C175.8,72.7,175,78,177.7,81.7"
           style="fill:#000000" /><path
           id="Shape_60_"
           class="st1"
           d="M158.7,95.2l13.1,18.2c1.4,2.7,4.3,4.3,7.3,4.1c3-0.2,5.7-2.1,6.8-4.9     c1.1-2.8,0.4-6.1-1.7-8.2l-13.1-18.1c-2.4-3.9-7.5-5.1-11.4-2.8l0,0C156.3,86.5,155.8,91.7,158.7,95.2"
           style="fill:#000000" /><path
           id="Shape_61_"
           class="st1"
           d="M140.7,109.9l14.4,17.2c1.6,2.7,4.5,4.2,7.6,3.8c3.1-0.4,5.6-2.5,6.5-5.5s-0.1-6.2-2.4-8.1     l-14.4-17.2c-2.6-3.7-7.8-4.7-11.5-2.1l0,0c-3.2,3.3-3.2,8.5,0,11.7"
           style="fill:#000000" /><path
           id="Shape_62_"
           class="st1"
           d="M123.8,125.9l15.6,16.1c1.8,2.5,4.8,3.7,7.8,3.1c3-0.6,5.3-2.9,6-5.8s-0.4-6.1-2.8-7.9     l-15.6-16.1c-2.9-3.5-8.1-4-11.7-1.2l0,0C120.1,117.5,120.5,122.8,123.8,125.9"
           style="fill:#000000" /><path
           id="Shape_63_"
           class="st1"
           d="M108,143l16.7,15c1.9,2.4,5.1,3.4,8,2.6c3-0.8,5.2-3.3,5.6-6.3c0.5-3-0.9-6-3.4-7.7l-16.8-15     c-3.2-3.3-8.4-3.4-11.7-0.3l0,0C103.7,134.9,104.4,140.1,108,143"
           style="fill:#000000" /><path
           id="Shape_64_"
           class="st1"
           d="M93.5,161.1l17.7,13.8c2.1,2.2,5.3,3,8.2,2c2.9-1,4.9-3.6,5.2-6.7c0.3-3-1.3-6-4-7.4     L103,149.1c-3.4-3-8.6-2.8-11.7,0.5l0,0C88.8,153.4,89.8,158.5,93.5,161.1"
           style="fill:#000000" /><path
           id="Shape_65_"
           class="st1"
           d="M80.3,180.2l18.6,12.6c2.2,2.1,5.5,2.7,8.3,1.5s4.7-3.9,4.7-7c0.1-3.1-1.7-5.9-4.5-7.2     l-18.7-12.6c-3.6-2.8-8.7-2.2-11.6,1.3l0,0C74.9,172.9,76.4,177.9,80.3,180.2"
           style="fill:#000000" /><path
           id="Shape_66_"
           class="st1"
           d="M68.4,200.2l19.4,11.2c2.4,1.9,5.7,2.3,8.4,0.9c2.7-1.4,4.4-4.3,4.2-7.3s-2.1-5.7-5-6.8     l-19.4-11.2c-3.8-2.5-8.9-1.6-11.5,2.1l0,0C62.6,193.2,64.4,198.1,68.4,200.2"
           style="fill:#000000" /><path
           id="Shape_67_"
           class="st1"
           d="M58,220.9l20.2,9.8c2.5,1.7,5.8,1.8,8.4,0.3c2.6-1.6,4.1-4.5,3.7-7.6c-0.4-3-2.5-5.6-5.4-6.5     l-20.2-9.8c-3.9-2.3-9-1-11.3,2.9l0,0C51.7,214.4,53.8,219.2,58,220.9"
           style="fill:#000000" /><path
           id="Shape_68_"
           class="st1"
           d="M49.1,242.4l20.8,8.4c2.6,1.5,5.9,1.4,8.4-0.3c2.5-1.7,3.7-4.8,3.2-7.8     c-0.6-3-2.8-5.4-5.7-6.1l-20.9-8.4c-4.1-2-9.1-0.3-11.1,3.8l0,0C42.3,236.4,44.7,241.1,49.1,242.4"
           style="fill:#000000" /><path
           id="Shape_69_"
           class="st1"
           d="M41.6,264.4l21.3,6.9c2.7,1.4,6,1.1,8.4-0.9c2.4-1.9,3.4-5.1,2.6-8s-3.3-5.2-6.3-5.6     l-21.4-6.9c-4.2-1.7-9.1,0.3-10.9,4.4l0,0C34.4,258.8,37.1,263.2,41.6,264.4"
           style="fill:#000000" /><path
           id="Shape_70_"
           class="st1"
           d="M35.7,286.9l21.8,5.4c2.8,1.2,6.1,0.6,8.3-1.4s3-5.3,2-8.2c-1-2.9-3.6-4.9-6.7-5.2l-21.8-5.4     c-4.3-1.4-9,0.9-10.5,5.2l0,0C28.2,281.8,31.2,286.1,35.7,286.9"
           style="fill:#000000" /><path
           id="Shape_71_"
           class="st1"
           d="M31.4,309.7l22.1,4.1c2.8,0.7,5.8-0.2,7.7-2.4s2.4-5.3,1.4-8s-3.6-4.6-6.5-4.8L34,294.6     c-4.4-1.1-8.9,1.6-10,6l0,0C23.5,305.2,26.9,309.3,31.4,309.7"
           style="fill:#000000" /><path
           id="Shape_72_"
           class="st1"
           d="M28.7,332.8l22.3,2.4c2.9,0.8,6.1-0.3,8-2.6s2.3-5.6,0.9-8.4c-1.4-2.7-4.2-4.4-7.3-4.2     l-22.3-2.3c-4.5-0.9-8.9,2-9.8,6.5l0,0C20.5,328.7,24.1,332.5,28.7,332.8"
           style="fill:#000000" /><path
           id="Shape_73_"
           class="st1"
           d="M27.6,356l22.4,0.8c3,0.6,6.1-0.7,7.8-3.2c1.8-2.5,1.9-5.8,0.3-8.4s-4.5-4.1-7.6-3.7     l-22.4-0.8c-4.5-0.5-8.6,2.7-9.2,7.3l0,0C19.2,352.5,23.1,356.1,27.6,356"
           style="fill:#000000" /><path
           id="Shape_74_"
           class="st1"
           d="M28.2,379.1l22.4-0.8c3,0.4,6-1.1,7.6-3.7s1.4-5.9-0.3-8.4c-1.8-2.5-4.8-3.7-7.8-3.2     l-22.4,0.8c-4.5-0.2-8.4,3.3-8.7,7.9l0,0C19.5,376.3,23.6,379.6,28.2,379.1"
           style="fill:#000000" /><path
           id="Shape_75_"
           class="st1"
           d="M30.3,402.4l22.3-2.4c3,0.1,5.9-1.5,7.3-4.2c1.4-2.7,1-6-0.9-8.4s-5-3.4-8-2.6l-22.3,2.4     c-4.5,0.2-8.1,3.8-8.1,8.3l0,0c0.9,4.5,5.3,7.4,9.8,6.5"
           style="fill:#000000" /><path
           id="Shape_76_"
           class="st1"
           d="M34.1,425.3l22-3.9c3-0.1,5.7-1.9,6.9-4.7c1.2-2.8,0.6-6-1.4-8.3c-2.1-2.2-5.2-3.1-8.1-2.1     l-22.1,3.9c-4.5,0.5-7.8,4.5-7.5,9l0,0C25.1,423.7,29.6,426.4,34.1,425.3"
           style="fill:#000000" /><path
           id="Shape_77_"
           class="st1"
           d="M39.4,447.8l21.8-5.4c3.1-0.3,5.7-2.3,6.7-5.2c1-2.9,0.2-6.1-2-8.2s-5.5-2.7-8.3-1.4     l-21.8,5.4c-4.5,0.8-7.5,5-6.8,9.5l0,0C30.3,446.8,35,449.2,39.4,447.8"
           style="fill:#000000" /><path
           id="Shape_78_"
           class="st1"
           d="M46.3,470.1l21.3-6.9c3-0.5,5.4-2.7,6.2-5.6c0.8-2.9-0.2-6.1-2.6-8c-2.4-1.9-5.6-2.3-8.4-0.9     l-21.3,7c-4.3,1.1-7.1,5.4-6.1,9.8l0,0c0.8,2.1,2.4,3.7,4.4,4.6C41.9,470.9,44.2,470.9,46.3,470.1"
           style="fill:#000000" /><path
           id="Shape_79_"
           class="st1"
           d="M54.8,491.8l20.9-8.4c3-0.7,5.3-3.1,5.9-6.1s-0.6-6.1-3.2-7.8s-5.8-1.9-8.4-0.3l-20.8,8.4     c-4.3,1.4-6.7,6-5.4,10.4l0,0C45.8,492,50.7,493.7,54.8,491.8"
           style="fill:#000000" /><path
           id="Shape_80_"
           class="st1"
           d="M64.7,512.7l20.2-9.8c3-0.8,5.2-3.3,5.7-6.4c0.4-3.1-1-6.1-3.7-7.7c-2.7-1.6-6-1.5-8.5,0.4     L58.2,499c-2.1,0.8-3.8,2.4-4.7,4.4c-0.9,2-1,4.4-0.1,6.5l0,0C55.7,513.8,60.7,515.1,64.7,512.7"
           style="fill:#000000" /><path
           id="Shape_81_"
           class="st1"
           d="M76.1,533l19.4-11.2c2.8-1.1,4.8-3.8,4.9-6.8s-1.5-5.9-4.2-7.3c-2.7-1.4-6-1.1-8.4,0.8     l-19.5,11.1c-4.1,2-5.8,6.9-3.9,11l0,0c2.6,3.8,7.8,4.7,11.5,2.2"
           style="fill:#000000" /><path
           id="Shape_82_"
           class="st1"
           d="M88.8,552.3l18.6-12.6c2.8-1.3,4.5-4.1,4.5-7.2c-0.1-3.1-1.9-5.8-4.7-7     c-2.8-1.2-6.1-0.6-8.3,1.5l-18.6,12.6c-4,2.2-5.4,7.2-3.3,11.2l0,0c1.4,1.8,3.4,2.9,5.6,3.2C84.8,554.3,87,553.7,88.8,552.3"
           style="fill:#000000" /><path
           id="Shape_83_"
           class="st1"
           d="M103,570.9l17.7-13.8c2.7-1.5,4.2-4.4,4-7.4c-0.3-3-2.3-5.7-5.2-6.7c-2.9-1-6.1-0.2-8.2,2     l-17.7,13.9c-3.8,2.5-4.8,7.6-2.4,11.4l0,0C94.3,573.7,99.5,573.9,103,570.9"
           style="fill:#000000" /><path
           id="Shape_84_"
           class="st1"
           d="M118.2,588.3l16.7-15c2.7-1.6,4.2-4.7,3.7-7.8c-0.4-3.1-2.7-5.6-5.8-6.4     c-3-0.8-6.3,0.4-8.1,2.9L108,577c-3.6,2.8-4.3,8-1.6,11.6l0,0C109.8,591.7,115,591.6,118.2,588.3"
           style="fill:#000000" /><path
           id="Shape_85_"
           class="st1"
           d="M134.8,604.6l15.6-16.1c2.4-1.8,3.6-5,2.9-7.9c-0.7-3-3.1-5.3-6.1-5.9     c-3-0.6-6.1,0.7-7.8,3.2L123.8,594c-3.4,3-3.7,8.2-0.8,11.7l0,0C126.6,608.6,131.8,608.1,134.8,604.6"
           style="fill:#000000" /><path
           id="Shape_86_"
           class="st1"
           d="M152.4,619.8l14.4-17.2c2.3-2,3.2-5.2,2.3-8.1c-0.9-2.9-3.4-5.1-6.5-5.4     c-3-0.4-6,1.1-7.6,3.7L140.7,610c-3.2,3.2-3.2,8.5,0,11.7l0,0c3.7,2.6,8.9,1.8,11.6-1.9"
           style="fill:#000000" /><path
           id="Shape_87_"
           class="st1"
           d="M171.1,633.7l13.1-18.1c2.1-2.2,2.8-5.4,1.7-8.2c-1.1-2.8-3.8-4.8-6.8-4.9     c-3-0.2-5.9,1.4-7.3,4.1l-13.1,18.1c-2.9,3.5-2.5,8.7,0.9,11.7l0,0C163.5,638.8,168.6,637.6,171.1,633.7"
           style="fill:#000000" /><path
           id="Shape_88_"
           class="st1"
           d="M190.6,646.3l11.9-19.1c1.9-2.3,2.2-5.5,0.9-8.2c-1.3-2.7-4-4.4-7-4.4c-3,0-5.7,1.8-7,4.5     l-11.9,19.1c-2.7,3.7-1.9,8.8,1.7,11.6l0,0c4.1,2.1,9.1,0.5,11.2-3.5"
           style="fill:#000000" /><path
           id="Shape_89_"
           class="st1"
           d="M211,657.5l10.6-19.8c1.8-2.4,2-5.7,0.5-8.4c-1.5-2.7-4.4-4.2-7.4-3.9s-5.6,2.3-6.6,5.1     l-10.5,19.9c-2.4,3.9-1.3,8.9,2.5,11.4l0,0c4.2,1.8,9.1-0.1,10.9-4.2"
           style="fill:#000000" /><path
           id="Shape_90_"
           class="st1"
           d="M232.1,667.2l9.1-20.5c1.6-2.6,1.6-5.9,0-8.4s-4.7-3.9-7.7-3.4s-5.5,2.7-6.3,5.6l-9.1,20.5     c-2.1,4-0.7,9,3.3,11.2l0,0c4.3,1.5,9-0.7,10.6-5"
           style="fill:#000000" /><path
           id="Shape_91_"
           class="st1"
           d="M253.9,675.3l7.7-21.1c1.5-2.7,1.2-6-0.6-8.4s-4.9-3.6-7.9-2.9c-3,0.7-5.3,3.1-5.9,6.1     l-7.7,21c-1.8,4.2,0,9,4.1,11l0,0C248,682.2,252.5,679.6,253.9,675.3"
           style="fill:#000000" /><path
           id="Shape_92_"
           class="st1"
           d="M276.1,682l6.2-21.6c1.3-2.8,0.8-6-1.2-8.4c-2-2.3-5.2-3.2-8.1-2.3s-5.1,3.4-5.4,6.5     l-6.1,21.6c-1.6,4.3,0.6,9,4.8,10.7l0,0C270.8,689.4,275.2,686.4,276.1,682"
           style="fill:#000000" /><path
           id="Shape_93_"
           class="st1"
           d="M298.8,687.1l4.7-22c1.1-2.8,0.4-6.1-1.7-8.2c-2.1-2.2-5.4-2.9-8.2-1.8s-4.8,3.7-5,6.7     l-4.7,21.9c-1.3,4.4,1.2,8.9,5.6,10.3l0,0c4.5,0.6,8.7-2.6,9.3-7.1"
           style="fill:#000000" /><path
           id="Shape_94_"
           class="st1"
           d="M321.8,690.6l3.3-22.2c0.9-2.9,0-6.1-2.4-8.1c-2.3-2-5.6-2.5-8.3-1.2s-4.5,4.1-4.5,7.1     l-3.1,22.2c-0.9,4.4,1.9,8.8,6.2,9.8l0,0C317.6,698.6,321.5,695.1,321.8,690.6"
           style="fill:#000000" /><path
           id="Shape_95_"
           class="st1"
           d="M344.9,692.5l1.5-22.4c0.7-3-0.4-6.1-2.9-7.9c-2.4-1.8-5.7-2.1-8.4-0.6     c-2.7,1.5-4.2,4.4-4,7.4l-1.5,22.4c-0.6,4.5,2.4,8.7,6.9,9.4l0,0C341.2,700.8,344.9,697.1,344.9,692.5"
           style="fill:#000000" /><path
           id="Shape_96_"
           class="st1"
           d="M368.2,692.9v-22.4c0.5-3-0.9-6.1-3.4-7.7c-2.6-1.7-5.9-1.7-8.4,0c-2.6,1.7-3.9,4.7-3.4,7.7     v22.4c-0.3,4.5,3,8.5,7.6,8.9l0,0C365,701.4,368.4,697.4,368.2,692.9"
           style="fill:#000000" /><path
           id="Shape_97_"
           class="st1"
           d="M357.4,81.4c6.5-0.2,23.8-0.3,32.7,0.5c5.9,0.6,16.7,2,16.6,8.2c-0.3,10.3-18.3,4.3-26.3,3.6     c-16.2-0.9-32.4-0.7-48.6,0.8c-8.2,0.8-16.1,2.5-16.6-4.2C314.3,79.2,343.7,81.7,357.4,81.4"
           style="fill:#000000" /><path
           id="Shape_98_"
           class="st1"
           d="M431.9,88.9c10.9,8.8-7.6,19.1-9.8,7.8C421.2,91.8,424.3,87.8,431.9,88.9"
           style="fill:#000000" /><path
           id="Shape_99_"
           class="st1"
           d="M282.3,98.5c-2.3-12,11.2-12.2,12.8-5.4C296.8,100.6,287.6,105.1,282.3,98.5"
           style="fill:#000000" /><path
           id="Shape_100_"
           class="st1"
           d="M461.4,100.5c6.2-2.8,17.1,5.3,22.9,8.3c13.3,6.6,26.2,14,38.6,22.1     c7.3,5,15.5,9.8,14.9,15.3c-0.5,3-2.7,5.5-5.7,6.3c-4.8,0.6-8-4.6-9.5-5.8c-14.6-11-30.2-20.5-46.5-28.6     c-6.2-3-17.9-4.2-18.9-10.6C456.7,104.6,458.5,101.6,461.4,100.5"
           style="fill:#000000" /><path
           id="Shape_101_"
           class="st1"
           d="M260.8,98c11.5,9.6-6.9,15.5-14.6,18.9c-16.8,7.4-32.7,16.8-47.4,27.9     c-4.4,3.3-13.7,9.1-15.2-0.2c-0.8-5.8,9.6-12.3,14.6-15.7c17.7-12.2,39.8-22.4,57.1-31C254.9,98.1,260.3,98,260.8,98"
           style="fill:#000000" /><path
           id="Shape_102_"
           class="st1"
           d="M158.7,154.8c13.1-4.2,12.6,14.9,2.2,12.8C156.1,166.5,154.4,159.1,158.7,154.8"
           style="fill:#000000" /><path
           id="Shape_103_"
           class="st1"
           d="M550.4,160.8c2-1,4.4-0.9,6.3,0.2c1.9,1.2,3.1,3.2,3.2,5.5c0,8.3-12,9.1-13.6,2.2     c-0.6-1.6-0.5-3.3,0.3-4.8C547.4,162.4,548.8,161.3,550.4,160.8"
           style="fill:#000000" /><path
           id="Shape_104_"
           class="st1"
           d="M574.8,183.5c2-1,4.2-1.2,6.4-0.7c2.6,0.8,9.8,11.9,13.3,16.9     c10.3,15.2,19.2,31.3,26.3,48.2c2.8,6.5,5.6,16.6-5,15c-6-0.9-7.6-11.2-10.9-18.5c-7.3-16.4-16.7-31.8-28-45.8     C573.3,194,568.1,187.1,574.8,183.5"
           style="fill:#000000" /><path
           id="Shape_105_"
           class="st1"
           d="M140.1,182.3c1.7-1.3,3.9-1.7,6-1.1c2.1,0.7,3.6,2.3,4.3,4.3c0.9,4.2-3,8.5-4.9,11     C133.9,211,124,226.6,116,243.2c-3.3,6.7-4.2,18.6-12.3,18.1c-12-0.7-1.7-19,2-26.1C115.1,216.7,128.4,194.3,140.1,182.3"
           style="fill:#000000" /><path
           id="Shape_106_"
           class="st1"
           d="M621,279c4.6-2,8.7,0,9.5,4.1c1.9,9.8-12.3,10.6-13.6,3C616.2,283,618,279.9,621,279"
           style="fill:#000000" /><path
           id="Shape_107_"
           class="st1"
           d="M91.6,277.8c1.8-0.4,3.7,0,5.2,1.1c1.5,1.1,2.4,2.8,2.6,4.6c0.1,3.6-2.2,6.8-5.7,7.8     C87.2,292.2,81.8,279.9,91.6,277.8"
           style="fill:#000000" /><path
           id="Shape_108_"
           class="st1"
           d="M628.4,321.2c2.2-3.3,6.8-7.6,11.2-3.8c3.3,2.8,4,18.4,4.4,24.7c0.7,15.9,0.5,31.9-0.8,47.8     c-0.8,8.8-2.9,17.3-8.2,17.4c-9.8,0-5.2-13.6-4.5-20.8C632.1,364.7,631.4,342.8,628.4,321.2"
           style="fill:#000000" /><path
           id="Shape_109_"
           class="st1"
           d="M91.1,312.9c3.3,3.6,0.2,9.8-0.2,13.5c-1.5,18-1.8,36.1-0.8,54.2c0.4,5.6,5.1,19.3-1.9,21.5     c-11.7,3.5-11-24.1-11.4-36.8c-0.3-9.4,0-19.6,0.4-25.5c0.5-8,1.1-23.8,5.2-27c1.5-2.6,7.1-1.5,8.8,0"
           style="fill:#000000" /><path
           id="Shape_110_"
           class="st1"
           d="M631.6,422.4c2.5,1.9,3.1,7.6,1.4,11.2c-4,2.5-9.3,1.4-11.9-2.5     C620.4,423.8,624.3,421.2,631.6,422.4"
           style="fill:#000000" /><path
           id="Shape_111_"
           class="st1"
           d="M87,421.2c10.8-2.1,7.7,13.7-0.2,12.7C82.1,433.3,78,423,87,421.2"
           style="fill:#000000" /><path
           id="Shape_112_"
           class="st1"
           d="M616.7,458.8c18.3-5.9,4.9,18.7,1.2,26.1c-6.9,13.5-14.8,26.4-23.7,38.6     c-3.3,4.9-8.5,16.7-16.1,14.1c-1.6-1-2.9-2.4-3.9-4c-1.5-5.4,7.9-15.1,10.6-18.9c8.3-11.5,15.7-23.7,22.1-36.3     C610.5,471.1,611.9,462.5,616.7,458.8"
           style="fill:#000000" /><path
           id="Shape_113_"
           class="st1"
           d="M92,457.1c9.6-10.6,15.8,7.6,19.6,16.3c7.4,16.4,16.5,32,27.1,46.6c2.5,3.5,9,11.9,0.6,14.4     c-8.4,2.5-14.5-12.6-16.3-15.4c-8.8-12.2-16.6-25.1-23.3-38.6C96.4,473.6,92.2,466.4,92,457.1"
           style="fill:#000000" /><path
           id="Shape_114_"
           class="st1"
           d="M561.2,548.7c10.2-3.3,10.5,12,3,12.8C556.6,562.2,552.8,551.5,561.2,548.7"
           style="fill:#000000" /><path
           id="Shape_115_"
           class="st1"
           d="M150.2,558.3c-0.7-7.1,2.2-10.6,9.8-9.4C169.4,555,156.1,567.9,150.2,558.3"
           style="fill:#000000" /><path
           id="Shape_116_"
           class="st1"
           d="M455.8,618.7c-4.6-9.2,7.3-12,16.2-15.7c20.1-8.5,41.1-23.8,54.6-33.4     c3.6-2.6,9.3,3.7,9.5,5.7c0.5,6-12.1,12.4-17,15.7c-13,8.9-26.7,16.7-41,23.4c-6.5,3.3-14.9,10.2-22.4,4.4"
           style="fill:#000000" /><path
           id="Shape_117_"
           class="st1"
           d="M185.8,572.4c11.4,5.7,21.2,15.7,37,24.4c5.7,3.3,12.2,6,20.6,9.8     c6.3,2.9,18.3,5.9,15.7,13.7c-2.6,7.8-16.1,0.2-22.2-2.7c-14.5-6.8-28.5-14.8-41.8-23.8c-5.3-3.6-16.7-9.2-16.3-15.4     c-0.1-1.9,0.6-3.7,2.1-4.9s3.3-1.7,5.2-1.3"
           style="fill:#000000" /><path
           id="Shape_118_"
           class="st1"
           d="M438.3,618.5c9,10.5-9.6,17.4-11.2,7C426.3,620.8,431.2,615.2,438.3,618.5"
           style="fill:#000000" /><path
           id="Shape_119_"
           class="st1"
           d="M286.2,619.3c11,10-9.5,18.5-10.5,7C275.4,621.8,279,618.3,286.2,619.3"
           style="fill:#000000" /><path
           id="Shape_120_"
           class="st1"
           d="M396.8,624.2c4.4,0.2,9.4-0.9,8.7,6.5c-0.7,6.5-13.2,7.1-21.6,7.7     c-13.8,0.6-27.6,0.3-41.4-0.7c-10.7-0.7-26.1,1.1-27.8-6.8c-2.4-12.5,18.3-5.8,27.2-5.2c17.7,1.2,40.2-1.8,53.4-1.6H396.8z"
           style="fill:#000000" /><path
           id="Shape_121_"
           class="st1"
           d="M243.1,164c-1.7,3.5-0.2,7.7,3.3,9.4c3.5,1.7,7.7,0.2,9.4-3.3s0.3-7.7-3.2-9.4     c-1.7-0.8-3.6-1-5.4-0.3S243.9,162.3,243.1,164"
           style="fill:#000000" /><path
           id="Shape_122_"
           class="st1"
           d="M160.7,249.7c-1.7,3.5-0.2,7.7,3.3,9.4c3.5,1.7,7.7,0.2,9.4-3.3c1.7-3.5,0.3-7.7-3.2-9.4     c-1.7-0.8-3.6-1-5.4-0.3C162.9,246.7,161.5,248,160.7,249.7"
           style="fill:#000000" /><path
           id="Shape_123_"
           class="st1"
           d="M131.3,364c-1.7,3.5-0.2,7.7,3.3,9.4c3.5,1.7,7.7,0.2,9.4-3.2c1.7-3.5,0.3-7.7-3.2-9.4     c-1.7-0.8-3.6-1-5.4-0.3C133.5,361,132.1,362.3,131.3,364"
           style="fill:#000000" /><path
           id="Shape_124_"
           class="st1"
           d="M168.3,468.9c-1.7,3.5-0.2,7.7,3.3,9.4c3.5,1.7,7.7,0.2,9.4-3.3c1.7-3.5,0.3-7.7-3.2-9.4     c-1.7-0.8-3.6-1-5.4-0.3C170.6,465.9,169.1,467.2,168.3,468.9"
           style="fill:#000000" /><path
           id="Shape_125_"
           class="st1"
           d="M248.5,548.2c-1.7,3.5-0.2,7.7,3.3,9.4c3.5,1.7,7.7,0.2,9.4-3.2s0.3-7.7-3.2-9.4     c-1.7-0.8-3.6-1-5.4-0.3S249.3,546.5,248.5,548.2"
           style="fill:#000000" /><path
           id="Shape_126_"
           class="st1"
           d="M357.5,580.7c-1.7,3.5-0.2,7.7,3.3,9.4c3.5,1.7,7.7,0.2,9.4-3.2c1.7-3.5,0.3-7.7-3.2-9.4     c-1.7-0.8-3.6-1-5.4-0.4C359.8,577.7,358.3,579,357.5,580.7"
           style="fill:#000000" /><path
           id="Shape_127_"
           class="st1"
           d="M479.7,549.1c-1.7,3.5-0.2,7.7,3.3,9.4c3.5,1.7,7.7,0.3,9.4-3.2s0.3-7.7-3.2-9.4     c-1.7-0.8-3.7-1-5.4-0.4C482,546.1,480.5,547.4,479.7,549.1"
           style="fill:#000000" /><path
           id="Shape_128_"
           class="st1"
           d="M555.9,460.5c-1.7,3.5-0.2,7.7,3.3,9.4c3.5,1.7,7.7,0.2,9.4-3.2c1.7-3.5,0.3-7.7-3.2-9.4     c-1.7-0.8-3.6-1-5.4-0.4C558.2,457.5,556.7,458.8,555.9,460.5"
           style="fill:#000000" /><path
           id="Shape_129_"
           class="st1"
           d="M577.2,350.1c-1.7,3.5-0.2,7.7,3.3,9.4s7.7,0.3,9.4-3.2c1.7-3.5,0.3-7.7-3.2-9.4     c-1.7-0.8-3.7-1-5.4-0.4S578,348.4,577.2,350.1"
           style="fill:#000000" /><path
           id="Shape_130_"
           class="st1"
           d="M546.9,241.9c-1.7,3.5-0.2,7.7,3.3,9.4s7.7,0.2,9.4-3.3s0.3-7.7-3.2-9.4     c-1.7-0.8-3.6-1-5.4-0.3C549.1,238.9,547.7,240.2,546.9,241.9"
           style="fill:#000000" /><path
           id="Shape_131_"
           class="st1"
           d="M470.6,161.7c-1.3,2.5-0.9,5.6,0.9,7.8c1.9,2.2,4.8,3,7.6,2.1c2.7-0.9,4.6-3.3,4.8-6.2     c0.2-2.8-1.3-5.5-3.9-6.8C476.6,156.8,472.4,158.2,470.6,161.7"
           style="fill:#000000" /><path
           id="Shape_132_"
           class="st1"
           d="M354.3,132.9c-1.7,3.5-0.2,7.7,3.3,9.4c3.5,1.7,7.7,0.2,9.4-3.3c1.7-3.5,0.3-7.7-3.2-9.4     c-1.7-0.8-3.6-1-5.4-0.3C356.5,129.9,355.1,131.2,354.3,132.9"
           style="fill:#000000" /><path
           id="Shape_133_"
           class="st1"
           d="M281.6,258.9c0.4,0.8,0.4,1.7,0,2.6s-1,1.5-1.8,1.8h-0.3l0,0c-7.3,2.4-14.4,5-21.1,7.7     c-6.8,2.8-13.4,6.1-20.1,9.8l0,0l0,0h-0.2c-1.3,0.7-2.9,0.4-3.9-0.7s-1.1-2.7-0.3-4l0,0l6.5-12.2l0,0l3.9-7.5     c1.2-2.1,3.1-3.8,5.4-4.8h0.4l0.4-0.2c2.3-1.1,4.9-1.3,7.4-0.6l8.1,2.5l0,0l13.1,4l0,0c1,0.3,1.8,1,2.2,1.9"
           style="fill:#000000" /><path
           id="Shape_134_"
           class="st1"
           d="M441.7,257L441.7,257l13.1-4l0,0l8.1-2.5c2.5-0.7,5.1-0.4,7.4,0.6l0.4,0.2h0.4     c2.4,0.9,4.3,2.6,5.6,4.9l4.2,7.7l0,0l6.4,12.2l0,0c0.5,0.9,0.6,2,0.2,2.9c-0.3,0.8-1,1.5-1.8,1.8c-0.8,0.3-1.8,0.3-2.6-0.1h-0.2     l0,0c-6.7-3.6-13.4-6.9-20.1-9.8c-6.7-2.8-13.7-5.3-20.9-7.6l0,0h-0.3c-1.4-0.5-2.3-1.8-2.2-3.3c0.1-1.5,1.2-2.7,2.6-3"
           style="fill:#000000" /><path
           id="Shape_135_"
           class="st1"
           d="M346.5,492c1.8-2.5,3.9-4.5,6.3-7.3c1.8-2.1,4.5-5.9,7.3-6c5.6-0.2,10.6,10.2,13.9,13.3     c3.1-5,5-11.1,10.6-13.6c4.7,0,9.4,0.4,14,1.3c-1.7,5.6-7.1,7.4-10.6,10.9c-7,7.3-13.3,15.3-18.6,23.9c-2,3.3-5.4,12-9.3,11.9     c-3.9,0-7.2-9.5-9-12.3c-5.3-8.6-11.5-16.6-18.6-23.9c-3.3-3.5-8.6-5-10.3-10.6c3.9-0.8,7.9-1.3,11.9-1.7     C341.3,478.5,343.5,486.9,346.5,492 M360.8,504c3.3-3.9,4.3-17.7-0.7-20.6C356.8,487.8,356.2,500.4,360.8,504"
           style="fill:#000000" /><path
           id="Shape_136_"
           class="st1"
           d="M439.5,473.3c-0.4-0.8-0.4-1.7,0-2.6s1-1.5,1.8-1.8h0.3l0,0c7.3-2.3,14.2-4.9,20.9-7.7     c6.5-2.8,13.4-6.1,20.1-9.8l0,0h0.2c0.8-0.4,1.7-0.4,2.6-0.1c0.8,0.3,1.5,1,1.8,1.8c0.5,0.9,0.5,2,0,2.9l0,0l-6.2,12.1l0,0     l-4,7.6c-1.3,2.2-3.2,3.9-5.6,4.9H471l-0.4,0.2c-2.3,1.1-4.9,1.3-7.4,0.6l-8.1-2.5l0,0l-13.1-4l0,0c-1-0.3-1.8-1-2.2-1.9"
           style="fill:#000000" /><path
           id="Shape_137_"
           class="st1"
           d="M277.9,490.1L277.9,490.1l13.1-4l0,0l8.2-2.5c2.5-0.7,5.1-0.4,7.4,0.6l0.4,0.2h0.4     c2.4,0.9,4.4,2.7,5.6,4.9l3.9,7.5l0,0l6.5,12.2l0,0c0.8,1.2,0.6,2.8-0.3,3.9c-1,1.1-2.6,1.4-3.9,0.7H319l0,0     c-6.7-3.6-13.4-6.8-20.1-9.8c-6.7-2.8-13.7-5.3-20.9-7.6l0,0h-0.3c-1.4-0.5-2.3-1.8-2.2-3.3s1.2-2.7,2.6-3"
           style="fill:#000000" /><path
           id="Shape_138_"
           class="st1"
           d="M279.3,475.3L279.3,475.3l-13.1,4l0,0l-8.1,2.5c-2.5,0.6-5.1,0.4-7.4-0.6l-0.4-0.2h-0.4     c-2.4-0.9-4.3-2.6-5.6-4.9l-4-7.6l0,0l-6.4-12.2c-0.8-1.2-0.6-2.8,0.3-3.9c1-1.1,2.6-1.4,3.9-0.7h0.3l0,0     c6.7,3.6,13.4,6.8,20.1,9.8c6.7,3,13.7,5.3,20.9,7.7l0,0h0.3c1.4,0.5,2.3,1.8,2.2,3.3S280.8,475,279.3,475.3"
           style="fill:#000000" /><path
           id="Shape_139_"
           class="st1"
           d="M445.2,492c0.4,0.8,0.4,1.7,0,2.6s-1,1.5-1.8,1.8h-0.3l0,0c-7.3,2.3-14.2,4.9-21,7.6     s-13.4,6.1-20.1,9.8l0,0l0,0h-0.2c-0.8,0.4-1.7,0.4-2.6,0.1c-0.8-0.3-1.5-1-1.8-1.8c-0.4-0.9-0.3-2,0.2-2.9l0,0l6.4-12.2l0,0     l3.9-7.5c1.3-2.2,3.2-3.9,5.6-4.9h0.4l0.4-0.2c2.3-1.1,4.9-1.3,7.4-0.6l8.2,2.5l0,0l13.1,4l0,0C444,490.4,444.8,491.1,445.2,492"
           style="fill:#000000" /><path
           id="Shape_140_"
           class="st1"
           d="M330.2,303.4h60.5c1.4,0,2.6-1,2.9-2.4c0.3-1.4-0.4-2.8-1.7-3.4l-21.6-10.2     c-3.1-1.7-6.4-2.9-9.8-3.8c-3.4,0.8-6.7,2.1-9.8,3.7l-21.6,10.1l-0.3,0.2l0,0c-1,0.5-1.6,1.5-1.6,2.6c0,0.8,0.3,1.6,0.9,2.1     C328.7,303.1,329.5,303.4,330.2,303.4"
           style="fill:#000000" /><path
           id="Shape_141_"
           class="st1"
           d="M390.8,422.3h-60.5c-1.4,0-2.6,1-2.9,2.4s0.4,2.8,1.7,3.4l21.6,10.2     c3.1,1.7,6.4,2.9,9.8,3.7c3.4-0.8,6.7-2,9.8-3.7l21.6-10.2h0.3c1.2-0.6,1.9-2,1.6-3.4c-0.3-1.4-1.5-2.3-2.9-2.3"
           style="fill:#000000" /><path
           id="Shape_142_"
           class="st1"
           d="M399,118.2l12.6,20.3c1.3,2,3.3,3.5,5.7,4c2.3,0.5,4.8,0.1,6.9-1.1l19.9-12.4     c1.8-1.2,2.8-3.3,2.4-5.4s-1.9-3.9-3.9-4.4h-0.3c-0.6-0.1-1.2-0.1-1.9,0c-11.8,1.5-23.8-1.4-33.7-8.1c-0.5-0.3-1.1-0.6-1.7-0.8     l0,0c-1.4-0.3-2.9-0.1-4.1,0.7s-2.1,2-2.4,3.4C398.2,115.6,398.4,117,399,118.2"
           style="fill:#000000" /><path
           id="Shape_143_"
           class="st1"
           d="M430.9,186.7l-12.6-20.3c-1.3-2-3.3-3.5-5.7-4c-2.3-0.5-4.8-0.1-6.9,1.1l-19.9,12.4l0,0     c-1.9,1.1-3,3.3-2.6,5.5c0.3,2.2,2,4,4.1,4.5h0.3c0.6,0.1,1.2,0.1,1.9,0c5.8-0.8,11.8-0.5,17.5,0.8c5.7,1.4,11.2,3.7,16.1,7     c0.5,0.3,1.1,0.6,1.7,0.8l0,0c2.1,0.5,4.3-0.3,5.5-2c1.3-1.7,1.5-4,0.4-5.9"
           style="fill:#000000" /><path
           id="Shape_144_"
           class="st1"
           d="M380.7,168.4l20.3-12.6c4.2-2.7,5.5-8.3,2.9-12.5l-12.4-19.9c-1.2-1.8-3.3-2.8-5.4-2.4     s-3.9,1.9-4.4,3.9v0.3c-0.1,0.6-0.1,1.3,0,1.9c1.6,11.8-1.2,23.7-7.8,33.6c-0.3,0.5-0.6,1.1-0.8,1.7l0,0     c-0.3,1.4-0.1,2.9,0.7,4.1c0.8,1.2,2,2.1,3.4,2.4c1.3,0.3,2.6,0.1,3.8-0.5"
           style="fill:#000000" /><path
           id="Shape_145_"
           class="st1"
           d="M449.2,136.5l-20.3,12.6c-2,1.3-3.5,3.3-4,5.7s-0.1,4.8,1.1,6.9l12.5,19.9     c0.7,1.3,2,2.2,3.4,2.6c2.9,0.7,5.8-1.1,6.5-4.1v-0.3c0.1-0.6,0.1-1.3,0-1.9c-1.6-11.8,1.2-23.7,7.8-33.6     c0.3-0.5,0.6-1.1,0.8-1.7l0,0c0.5-2.1-0.3-4.3-2-5.5c-1.7-1.3-4-1.5-5.9-0.4"
           style="fill:#000000" /><path
           id="Shape_146_"
           class="st1"
           d="M408.2,154.5c1.1,3.7,5,5.8,8.8,4.7s5.8-5,4.7-8.8c-1.1-3.7-5-5.8-8.8-4.7     c-1.8,0.5-3.3,1.8-4.2,3.4S407.7,152.7,408.2,154.5"
           style="fill:#000000" /><path
           id="Shape_147_"
           class="st1"
           d="M292.4,536.5l12.6,20.4c1.3,2,3.3,3.5,5.7,4c2.3,0.5,4.8,0.1,6.9-1.1l19.9-12.4l0,0     c1.3-0.8,2.2-2,2.6-3.5c0.3-1.4,0.1-2.9-0.7-4.1s-2-2.1-3.4-2.4h-0.3c-0.6-0.1-1.3-0.1-1.9,0c-5.8,0.8-11.8,0.5-17.5-0.9     c-5.8-1.4-11.2-3.8-16.1-7.1c-0.5-0.3-1.1-0.6-1.7-0.8l0,0c-1.4-0.3-2.9-0.1-4.1,0.7c-1.2,0.8-2.1,2-2.4,3.4     C291.7,534,291.9,535.4,292.4,536.5"
           style="fill:#000000" /><path
           id="Shape_148_"
           class="st1"
           d="M324.4,605l-12.6-20.3c-1.3-2-3.3-3.5-5.7-4c-2.3-0.5-4.8-0.1-6.9,1.1l-19.9,12.4     c-1.8,1.2-2.8,3.3-2.4,5.4s1.9,3.9,3.9,4.4h0.3c0.6,0.1,1.3,0.1,1.9,0c11.8-1.6,23.7,1.2,33.6,7.8c0.5,0.3,1.1,0.6,1.7,0.8l0,0     c1.4,0.3,2.9,0.1,4.1-0.7c1.2-0.8,2.1-2,2.4-3.4c0.3-1.3,0.1-2.6-0.5-3.8"
           style="fill:#000000" /><path
           id="Shape_149_"
           class="st1"
           d="M274.2,586.8l20.3-12.6c2-1.3,3.5-3.3,4-5.7s0.1-4.8-1.1-6.9l-12.4-19.9     c-1.1-1.9-3.3-3-5.5-2.6c-2.2,0.3-4,2-4.5,4.1v0.3c-0.1,0.6-0.1,1.2,0,1.9c1.5,11.8-1.3,23.8-7.8,33.7c-0.3,0.5-0.6,1.1-0.8,1.7     l0,0c-0.7,2.9,1.1,5.8,4.1,6.5c1.3,0.3,2.6,0.1,3.8-0.6"
           style="fill:#000000" /><path
           id="Shape_150_"
           class="st1"
           d="M342.6,554.8l-20.3,12.6c-2.1,1.3-3.5,3.3-4.1,5.7s-0.1,4.8,1.2,6.9l12.4,19.9     c1.1,1.8,3.3,2.8,5.4,2.5c2.1-0.3,3.9-1.9,4.4-4v-0.3c0.1-0.6,0.1-1.3,0-1.9c-1.5-11.8,1.3-23.7,7.9-33.6     c0.3-0.5,0.6-1.1,0.8-1.7l0,0c0.5-2.1-0.2-4.3-1.9-5.6c-1.7-1.3-4-1.5-5.9-0.4"
           style="fill:#000000" /><path
           id="Shape_151_"
           class="st1"
           d="M301.7,572.8c0.8,2.7,3.2,4.7,6,5c2.8,0.3,5.5-1.2,6.9-3.7c1.3-2.5,1-5.6-0.8-7.8     c-1.8-2.2-4.8-3.1-7.5-2.3C302.6,565.2,300.5,569.1,301.7,572.8"
           style="fill:#000000" /><path
           id="Shape_152_"
           class="st1"
           d="M517.8,171.2l0.5,23.9c0.1,2.4,1.1,4.7,2.8,6.4s4.1,2.6,6.5,2.5l23.4-0.5l0,0     c1.5,0,2.9-0.6,4-1.7c1-1,1.5-2.4,1.5-3.9c0-1.4-0.6-2.8-1.7-3.8l-0.2-0.2c-0.5-0.5-1.1-0.9-1.8-1.1     c-10.9-4.7-19.8-13.2-24.9-23.9c-0.3-0.6-0.6-1.1-1-1.5l0,0c-1.5-1.5-3.8-1.9-5.8-1.1C519.1,167.1,517.8,169,517.8,171.2"
           style="fill:#000000" /><path
           id="Shape_153_"
           class="st1"
           d="M510.4,246.4l-0.5-23.9c-0.1-2.4-1.1-4.7-2.8-6.4s-4.1-2.6-6.5-2.5l-23.4,0.5     c-1.5,0-2.9,0.6-4,1.7c-1,1-1.5,2.4-1.5,3.9c0,1.4,0.6,2.8,1.7,3.8l0.2,0.2c0.5,0.4,1,0.7,1.6,1c10.9,4.7,19.8,13.1,24.9,23.8     c0.3,0.6,0.6,1.1,1,1.5l0,0c1,1,2.4,1.5,3.9,1.5c1.4,0,2.8-0.6,3.8-1.7c0.9-1,1.4-2.2,1.5-3.5"
           style="fill:#000000" /><path
           id="Shape_154_"
           class="st1"
           d="M476.5,205.1l23.9-0.5c2.4-0.1,4.7-1.1,6.4-2.8c1.7-1.7,2.6-4.1,2.5-6.5l-0.5-23.4     c0-2.2-1.3-4.2-3.4-5.1c-2.1-0.8-4.4-0.3-6,1.3l-0.2,0.2c-0.4,0.5-0.7,1-1,1.6c-4.7,10.9-13.2,19.8-23.9,24.9     c-0.6,0.3-1.1,0.6-1.5,1l0,0c-1,1-1.6,2.4-1.6,3.8c0,1.4,0.6,2.8,1.6,3.8C473.8,204.4,475.1,205,476.5,205.1"
           style="fill:#000000" /><path
           id="Shape_155_"
           class="st1"
           d="M551.7,212.4l-24,0.5c-2.4,0.1-4.7,1.1-6.4,2.8c-1.7,1.7-2.6,4.1-2.5,6.5l0.5,23.4     c0,2.2,1.3,4.2,3.4,5c2,0.8,4.4,0.3,5.9-1.2l0.2-0.2c0.4-0.5,0.8-1,1-1.6c4.7-10.9,13.2-19.8,23.9-25c0.6-0.3,1.1-0.6,1.5-1l0,0     c1-1,1.6-2.4,1.6-3.8c0-1.4-0.6-2.8-1.6-3.8C554.4,213.1,553.1,212.5,551.7,212.4"
           style="fill:#000000" /><path
           id="Shape_156_"
           class="st1"
           d="M507.3,207.1c-0.7,2.8,0.4,5.7,2.6,7.3s5.4,1.8,7.8,0.4c2.4-1.5,3.7-4.3,3.3-7.1     c-0.4-2.8-2.5-5.1-5.3-5.8C512,201,508.3,203.3,507.3,207.1"
           style="fill:#000000" /><path
           id="Shape_157_"
           class="st1"
           d="M213,476.8l0.5,23.9c0,2.4,1,4.7,2.8,6.4c1.7,1.7,4.1,2.6,6.5,2.5l23.4-0.5l0,0     c2.2,0,4.2-1.3,5.1-3.4c0.8-2.1,0.3-4.4-1.3-6l-0.2-0.2c-0.5-0.4-1-0.7-1.6-1c-10.9-4.7-19.8-13.2-24.9-23.9     c-0.3-0.6-0.6-1.1-1-1.5l0,0c-1.5-1.5-3.8-1.9-5.8-1.1C214.4,472.9,213.1,474.7,213,476.8"
           style="fill:#000000" /><path
           id="Shape_158_"
           class="st1"
           d="M205.5,552l-0.5-23.9c-0.1-2.4-1.1-4.7-2.8-6.4s-4.1-2.6-6.5-2.5l-23.4,0.5l0,0     c-2.2,0-4.2,1.3-5.1,3.4c-0.8,2.1-0.3,4.4,1.3,6l0.2,0.2c0.5,0.4,1,0.7,1.6,1c10.9,4.7,19.8,13.2,24.9,23.9     c0.3,0.6,0.6,1.1,1,1.5l0,0c1.5,1.5,3.8,1.9,5.8,1.1C204.1,556,205.4,554.1,205.5,552"
           style="fill:#000000" /><path
           id="Shape_159_"
           class="st1"
           d="M171.7,510.7l23.9-0.5c5-0.1,9-4.3,8.9-9.3l-0.5-23.4c0-1.5-0.6-2.9-1.7-4     c-1-1-2.4-1.5-3.9-1.5c-1.4,0-2.8,0.6-3.8,1.7l-0.2,0.2c-0.4,0.5-0.7,1-1,1.6c-4.7,10.9-13.2,19.8-23.9,24.9     c-0.6,0.3-1.1,0.6-1.5,1l0,0c-1,1-1.5,2.4-1.5,3.9c0,1.4,0.6,2.8,1.7,3.8C169.1,510.1,170.4,510.6,171.7,510.7"
           style="fill:#000000" /><path
           id="Shape_160_"
           class="st1"
           d="M246.9,518.1l-24,0.5c-2.4,0.1-4.7,1.1-6.4,2.8s-2.6,4.1-2.5,6.5l0.5,23.4     c0,1.5,0.6,2.9,1.7,4c1,1,2.4,1.5,3.9,1.5s2.8-0.6,3.8-1.7l0.2-0.2c0.4-0.5,0.7-1,1-1.6c4.7-10.9,13.1-19.8,23.8-24.9     c0.6-0.3,1.1-0.6,1.5-1l0,0c1.5-1.5,2-3.8,1.1-5.8c-0.8-2-2.7-3.3-4.8-3.3"
           style="fill:#000000" /><path
           id="Shape_161_"
           class="st1"
           d="M202.4,512.7c-0.9,3.8,1.4,7.6,5.2,8.5c3.8,0.9,7.6-1.4,8.5-5.2c0.9-3.8-1.4-7.6-5.2-8.5     c-1.8-0.4-3.7-0.1-5.3,0.8C204,509.4,202.8,510.9,202.4,512.7"
           style="fill:#000000" /><path
           id="Shape_162_"
           class="st1"
           d="M589.2,267.4l-10.9,21.3c-2.3,4.5-0.5,9.9,3.9,12.2l20.9,10.6l0,0c1.3,0.7,2.9,0.9,4.3,0.4     c1.4-0.4,2.5-1.4,3.1-2.7s0.8-2.8,0.3-4.1v-0.3c-0.2-0.6-0.5-1.1-0.9-1.6c-3.7-4.6-6.5-9.8-8.3-15.5c-1.8-5.6-2.7-11.5-2.4-17.4     c0-0.6,0-1.2-0.2-1.8l0,0c-0.4-1.4-1.4-2.6-2.7-3.3c-1.3-0.7-2.8-0.8-4.2-0.3C590.8,265.4,589.8,266.2,589.2,267.4"
           style="fill:#000000" /><path
           id="Shape_163_"
           class="st1"
           d="M547.2,330.1l10.9-21.3c1.1-2.1,1.3-4.6,0.5-6.9s-2.4-4.2-4.5-5.3L533.3,286     c-2-1.1-4.4-0.8-6.1,0.6s-2.4,3.8-1.6,5.9v0.3c0.2,0.6,0.6,1.1,0.9,1.6c3.7,4.6,6.5,9.8,8.3,15.4c1.8,5.6,2.6,11.5,2.4,17.4     c0,0.6,0,1.3,0.2,1.9l0,0c0.4,1.4,1.4,2.5,2.7,3.2c1.3,0.7,2.8,0.8,4.1,0.3C545.4,332.2,546.5,331.3,547.2,330.1"
           style="fill:#000000" /><path
           id="Shape_164_"
           class="st1"
           d="M536.8,277.8l21.3,10.8c2.1,1.1,4.6,1.3,6.9,0.5c2.3-0.7,4.2-2.4,5.3-4.5l10.6-20.9     c0.7-1.3,0.9-2.9,0.4-4.3c-0.4-1.4-1.4-2.5-2.7-3.2c-1.3-0.7-2.8-0.8-4.1-0.3h-0.3c-0.6,0.2-1.1,0.6-1.6,0.9     c-9.2,7.4-20.9,11.2-32.7,10.7c-0.6,0-1.3,0-1.9,0.2l0,0c-1.4,0.4-2.5,1.4-3.2,2.7c-0.7,1.3-0.8,2.8-0.3,4.2     c0.4,1.3,1.3,2.3,2.4,3"
           style="fill:#000000" /><path
           id="Shape_165_"
           class="st1"
           d="M599.6,319.8L578.2,309c-2.2-1.1-4.7-1.3-7-0.6s-4.2,2.4-5.3,4.6l-10.6,20.9l0,0     c-1.1,2-0.9,4.4,0.6,6.2c1.5,1.7,3.9,2.4,6,1.6h0.3c0.6-0.2,1.1-0.6,1.6-0.9c9.2-7.4,20.9-11.2,32.7-10.7c0.6,0,1.2,0,1.8-0.2     l0,0c1.4-0.4,2.6-1.4,3.3-2.7c0.7-1.3,0.8-2.8,0.3-4.2c-0.4-1.3-1.3-2.3-2.4-3"
           style="fill:#000000" /><path
           id="Shape_166_"
           class="st1"
           d="M563,294.1c-2,2.1-2.4,5.2-1.2,7.8s3.9,4.2,6.8,4.1s5.4-2,6.3-4.8c0.9-2.7,0.1-5.7-2-7.6     C569.9,291.1,565.6,291.4,563,294.1"
           style="fill:#000000" /><path
           id="Shape_167_"
           class="st1"
           d="M176.2,393l-10.9,21.3c-1.1,2.1-1.3,4.6-0.6,6.9c0.7,2.3,2.4,4.2,4.5,5.3l20.8,10.6l0,0     c2,1.1,4.4,0.8,6.1-0.6c1.7-1.5,2.4-3.8,1.6-5.9v-0.3c-0.2-0.6-0.5-1.1-0.9-1.6c-7.4-9.2-11.2-20.9-10.7-32.7     c0-0.6,0-1.3-0.2-1.9l0,0c-0.6-2-2.4-3.5-4.6-3.7S177.2,391.3,176.2,393"
           style="fill:#000000" /><path
           id="Shape_168_"
           class="st1"
           d="M134.2,455.8l10.9-21.3c2.3-4.5,0.5-9.9-4-12.2l-20.9-10.6c-2-1.1-4.4-0.8-6.1,0.6     s-2.4,3.8-1.6,5.9v0.3c0.2,0.6,0.6,1.1,0.9,1.6c7.4,9.2,11.2,20.9,10.7,32.7c0,0.6,0.1,1.3,0.2,1.9l0,0c0.4,1.4,1.4,2.6,2.7,3.3     c1.3,0.7,2.9,0.8,4.3,0.3C132.5,457.8,133.6,456.9,134.2,455.8"
           style="fill:#000000" /><path
           id="Shape_169_"
           class="st1"
           d="M123.8,403.4l21.3,10.9c2.2,1.1,4.7,1.3,7,0.6c2.3-0.8,4.2-2.4,5.3-4.6l10.6-20.9     c0.7-1.3,0.9-2.9,0.4-4.3c-0.4-1.4-1.4-2.5-2.7-3.2c-1.3-0.7-2.8-0.8-4.2-0.3h-0.3c-0.6,0.2-1.1,0.6-1.6,0.9     c-9.2,7.4-20.9,11.2-32.7,10.7c-0.6,0-1.3,0-1.9,0.2l0,0c-2.9,0.9-4.4,4-3.5,6.9c0.4,1.3,1.3,2.3,2.5,2.9"
           style="fill:#000000" /><path
           id="Shape_170_"
           class="st1"
           d="M186.6,445.4l-21.4-10.8c-2.1-1.1-4.6-1.3-6.9-0.5c-2.3,0.7-4.2,2.4-5.3,4.5l-10.6,20.9     c-1.1,2-0.9,4.4,0.6,6.2c1.5,1.7,3.9,2.4,6,1.6h0.3c0.6-0.2,1.1-0.5,1.6-0.9c9.2-7.4,20.9-11.2,32.7-10.7c0.6,0,1.2,0,1.8-0.2     l0,0c2.1-0.6,3.5-2.4,3.8-4.5s-0.8-4.2-2.7-5.3"
           style="fill:#000000" /><path
           id="Shape_171_"
           class="st1"
           d="M149.9,419.7c-1.9,2.1-2.4,5.2-1.2,7.8c1.2,2.6,3.9,4.2,6.7,4c2.9-0.2,5.3-2,6.3-4.7     c0.9-2.7,0.1-5.7-2-7.6C156.8,416.7,152.5,416.9,149.9,419.7"
           style="fill:#000000" /><path
           id="Shape_172_"
           class="st1"
           d="M606.1,391.9l-20,13.1c-4.2,2.8-5.3,8.4-2.6,12.6l13.1,19.6l0,0c1.2,1.8,3.4,2.7,5.5,2.3     c2.1-0.4,3.8-2,4.3-4.1v-0.3c0.1-0.6,0.1-1.3,0-1.9c-1.9-11.7,0.6-23.8,6.9-33.9c0.3-0.5,0.6-1.1,0.8-1.7l0,0     c0.5-2.1-0.4-4.3-2.1-5.5C610.2,390.9,607.9,390.8,606.1,391.9"
           style="fill:#000000" /><path
           id="Shape_173_"
           class="st1"
           d="M538.6,425.8l20-13.1c2-1.3,3.4-3.4,3.9-5.8c0.5-2.4,0-4.8-1.3-6.8L548,380.5l0,0     c-1.2-1.8-3.3-2.8-5.5-2.4c-2.1,0.4-3.8,2-4.3,4.2v0.3c-0.1,0.6-0.1,1.3,0,1.9c1.9,11.8-0.6,23.8-6.9,33.9     c-0.3,0.5-0.6,1.1-0.8,1.7l0,0c-0.3,1.4-0.1,2.9,0.7,4.2c0.8,1.2,2.1,2.1,3.5,2.4c1.3,0.3,2.7,0,3.8-0.7"
           style="fill:#000000" /><path
           id="Shape_174_"
           class="st1"
           d="M555.4,375.1l13.1,19.9c1.3,2,3.4,3.4,5.8,3.9c2.4,0.5,4.8,0,6.8-1.3l19.6-12.9     c1.3-0.8,2.2-2.1,2.5-3.5c0.3-1.4,0.1-2.9-0.7-4.2c-0.8-1.2-2.1-2.1-3.5-2.4h-0.3c-0.6-0.1-1.2-0.1-1.9,0     c-11.7,1.9-23.8-0.6-33.8-6.9c-0.5-0.3-1.1-0.6-1.7-0.8l0,0c-1.4-0.3-2.9-0.1-4.2,0.7c-1.2,0.8-2.1,2.1-2.4,3.5     C554.4,372.5,554.6,373.9,555.4,375.1"
           style="fill:#000000" /><path
           id="Shape_175_"
           class="st1"
           d="M589.2,442.6l-13.1-20c-2.8-4.2-8.4-5.3-12.6-2.5L544,433.2l0,0c-1.8,1.2-2.8,3.3-2.4,5.5     c0.4,2.1,2,3.8,4.2,4.3h0.3c0.6,0.1,1.3,0.1,1.9,0c11.7-1.9,23.8,0.6,33.9,6.9c0.5,0.3,1.1,0.6,1.7,0.7l0,0     c2.1,0.5,4.3-0.4,5.5-2.1C590.2,446.8,590.3,444.4,589.2,442.6"
           style="fill:#000000" /><path
           id="Shape_176_"
           class="st1"
           d="M570.1,402.2c-3.7,1.2-5.7,5.2-4.4,8.9c1.2,3.7,5.2,5.7,8.9,4.4s5.7-5.2,4.4-8.9     C577.7,402.9,573.7,401,570.1,402.2"
           style="fill:#000000" /><path
           id="Shape_177_"
           class="st1"
           d="M184.8,297.4l-20,13.1c-4.2,2.8-5.3,8.4-2.5,12.6l13.1,19.6l0,0c1.2,1.8,3.4,2.7,5.5,2.3     c2.1-0.4,3.8-2,4.3-4.1v-0.3c0.1-0.6,0.1-1.2,0-1.9c-1.9-11.7,0.6-23.8,6.9-33.9c0.3-0.5,0.6-1.1,0.8-1.7l0,0     c0.5-2.1-0.4-4.3-2.1-5.5C189,296.4,186.7,296.3,184.8,297.4"
           style="fill:#000000" /><path
           id="Shape_178_"
           class="st1"
           d="M117.3,331.3l20-13.1c4.2-2.8,5.3-8.4,2.5-12.6L126.7,286l0,0c-1.2-1.8-3.4-2.7-5.5-2.3     c-2.1,0.4-3.8,2-4.3,4.1v0.3c-0.1,0.6-0.1,1.3,0,1.9c1.8,11.7-0.6,23.6-6.9,33.6c-0.3,0.5-0.6,1.1-0.8,1.7l0,0     c-0.3,1.4-0.1,2.9,0.7,4.2c0.8,1.2,2.1,2.1,3.5,2.4C114.8,332.1,116.2,331.9,117.3,331.3"
           style="fill:#000000" /><path
           id="Shape_179_"
           class="st1"
           d="M134.1,280.6l13.1,20c1.3,2,3.4,3.4,5.8,3.9c2.4,0.5,4.8,0,6.8-1.3l19.6-13.1     c1.8-1.2,2.7-3.4,2.3-5.5c-0.4-2.1-2-3.8-4.1-4.3h-0.3c-0.6-0.1-1.3-0.1-1.9,0c-11.7,1.9-23.8-0.6-33.9-6.9     c-0.5-0.3-1.1-0.6-1.7-0.8l0,0c-1.4-0.3-2.9-0.1-4.2,0.7s-2.1,2.1-2.4,3.5c-0.3,1.3,0,2.6,0.7,3.8"
           style="fill:#000000" /><path
           id="Shape_180_"
           class="st1"
           d="M168,348.1l-13.1-20c-2.8-4.2-8.4-5.3-12.6-2.6l-19.6,13.1c-1.8,1.2-2.7,3.4-2.3,5.5     c0.4,2.1,2,3.8,4.1,4.3h0.3c0.6,0.1,1.2,0.1,1.9,0c11.7-1.9,23.8,0.6,33.9,6.9c0.5,0.3,1.1,0.6,1.7,0.7l0,0     c2.1,0.5,4.3-0.4,5.5-2.1C169,352.2,169.1,349.9,168,348.1"
           style="fill:#000000" /><path
           id="Shape_181_"
           class="st1"
           d="M148.8,307.7c-3.7,1.2-5.7,5.2-4.4,8.9c1.2,3.7,5.2,5.7,8.9,4.4c3.7-1.2,5.7-5.2,4.4-8.9     c-0.6-1.8-1.9-3.2-3.5-4.1C152.5,307.2,150.6,307.1,148.8,307.7"
           style="fill:#000000" /><path
           id="Shape_182_"
           class="st1"
           d="M559.7,508l-23.9,1.7c-2.4,0.2-4.7,1.3-6.2,3.2c-1.6,1.8-2.4,4.2-2.2,6.7l1.7,23.4l0,0     c0.1,1.5,0.7,2.9,1.9,3.9c1.1,0.9,2.5,1.4,3.9,1.3c1.4-0.1,2.8-0.8,3.7-1.9l0.2-0.2c0.4-0.5,0.7-1.1,0.9-1.7     c2.1-5.5,5.1-10.6,8.9-15.1c3.9-4.5,8.5-8.2,13.7-11c0.5-0.3,1-0.7,1.5-1.1l0,0c1.4-1.6,1.7-3.9,0.9-5.8c-0.9-1.9-2.8-3.2-5-3.1"
           style="fill:#000000" /><path
           id="Shape_183_"
           class="st1"
           d="M484.2,504.3l23.9-1.7c2.4-0.2,4.7-1.3,6.3-3.1c1.6-1.8,2.4-4.2,2.1-6.7l-1.7-23.4     c-0.1-2.2-1.5-4.2-3.6-4.9c-2.1-0.7-4.4-0.1-5.9,1.6l-0.2,0.2c-0.4,0.5-0.7,1.1-0.9,1.7c-4.1,11.2-12.1,20.5-22.6,26.1     c-0.5,0.3-1,0.7-1.5,1.1l0,0c-2,2.3-1.7,5.7,0.6,7.6C481.7,503.8,483,504.3,484.2,504.3"
           style="fill:#000000" /><path
           id="Shape_184_"
           class="st1"
           d="M523.8,468.4l1.7,23.9c0.2,2.4,1.3,4.7,3.1,6.3c1.8,1.6,4.2,2.4,6.7,2.1l23.3-1.7     c1.5,0,2.9-0.7,3.9-1.9c2-2.3,1.7-5.7-0.6-7.6l-0.2-0.2c-0.5-0.4-1.1-0.7-1.7-0.9c-11.2-4.1-20.5-12.1-26.1-22.6     c-0.3-0.5-0.7-1-1.1-1.5l0,0c-1.6-1.4-3.9-1.7-5.8-0.8c-1.9,0.9-3.2,2.9-3.1,5"
           style="fill:#000000" /><path
           id="Shape_185_"
           class="st1"
           d="M520.2,543.9l-1.7-23.9c-0.2-2.4-1.3-4.7-3.1-6.3c-1.8-1.6-4.2-2.4-6.7-2.2l-23.4,1.7     c-2.2,0.1-4.2,1.5-4.9,3.6c-0.7,2.1-0.1,4.4,1.6,5.9l0.2,0.2c0.5,0.4,1.1,0.7,1.7,0.9c11.2,4.1,20.5,12.2,26.1,22.6     c0.3,0.5,0.7,1,1.1,1.5l0,0c1.6,1.4,3.9,1.8,5.8,0.9C518.9,547.9,520.1,546,520.2,543.9"
           style="fill:#000000" /><path
           id="Shape_186_"
           class="st1"
           d="M523.5,499.2c-3.8-0.7-7.5,1.8-8.2,5.6c-0.7,3.8,1.8,7.5,5.6,8.2c3.8,0.7,7.5-1.8,8.2-5.6     c0.4-1.8,0-3.7-1.1-5.3C526.9,500.6,525.3,499.6,523.5,499.2"
           style="fill:#000000" /><path
           id="Shape_187_"
           class="st1"
           d="M239.1,219l-23.9,1.7c-2.4,0.2-4.7,1.3-6.3,3.1c-1.6,1.8-2.4,4.2-2.2,6.7l1.7,23.4     c0.1,1.5,0.7,2.9,1.9,3.9c2.3,2,5.7,1.7,7.6-0.6l0.2-0.2c0.4-0.5,0.7-1,0.9-1.6c4.1-11.2,12.2-20.5,22.6-26.1     c0.5-0.3,1-0.7,1.5-1.1l0,0c1.5-1.6,1.9-3.9,1.1-5.9S241.3,218.9,239.1,219"
           style="fill:#000000" /><path
           id="Shape_188_"
           class="st1"
           d="M163.6,215.2l23.9-1.7c2.4-0.2,4.7-1.3,6.3-3.1c1.6-1.8,2.4-4.2,2.1-6.7l-1.7-23.4     c-0.1-1.5-0.7-2.9-1.9-3.9c-1.1-0.9-2.5-1.4-3.9-1.3c-1.4,0.1-2.8,0.8-3.7,1.9l-0.2,0.2c-0.4,0.5-0.7,1.1-0.9,1.7     c-4.1,11.2-12.2,20.5-22.6,26.1c-0.5,0.3-1.1,0.7-1.5,1.1l0,0c-0.9,1.1-1.4,2.5-1.3,3.9c0.1,1.4,0.8,2.8,1.9,3.7     C161.1,214.7,162.4,215.2,163.6,215.2"
           style="fill:#000000" /><path
           id="Shape_189_"
           class="st1"
           d="M203.2,179.3l1.7,23.9c0.2,2.4,1.3,4.7,3.2,6.2c1.8,1.6,4.2,2.4,6.7,2.2l23.3-1.7     c2.2-0.1,4.1-1.6,4.8-3.7c0.7-2.1,0.1-4.4-1.6-5.9l-0.2-0.2c-0.5-0.4-1.1-0.6-1.7-0.8c-11.2-4.1-20.5-12.2-26.1-22.6     c-0.3-0.5-0.7-1-1.1-1.5l0,0c-1.1-0.9-2.5-1.4-4-1.3c-1.4,0.1-2.8,0.8-3.7,1.9c-0.9,1-1.3,2.3-1.3,3.6"
           style="fill:#000000" /><path
           id="Shape_190_"
           class="st1"
           d="M199.6,254.9l-1.7-23.9c-0.2-2.4-1.3-4.7-3.2-6.2s-4.2-2.4-6.7-2.2l-23.4,1.7     c-2.2,0.1-4.2,1.5-4.9,3.6c-0.7,2.1-0.1,4.4,1.6,5.9l0.2,0.2c0.5,0.4,1.1,0.7,1.7,0.9c11.2,4.1,20.5,12.2,26.1,22.6     c0.3,0.5,0.7,1,1.1,1.5l0,0c1.6,1.5,3.9,1.9,5.9,1C198.4,259.1,199.6,257.1,199.6,254.9"
           style="fill:#000000" /><path
           id="Shape_191_"
           class="st1"
           d="M202.7,210.2c-2.8-0.5-5.6,0.6-7.2,3c-1.6,2.4-1.6,5.5,0,7.8c1.6,2.4,4.4,3.5,7.2,3     c2.8-0.6,5-2.8,5.5-5.5C209,214.6,206.5,210.9,202.7,210.2"
           style="fill:#000000" /><path
           id="Shape_192_"
           class="st1"
           d="M456,589.1l-21.3-10.9c-2.1-1.1-4.6-1.3-6.9-0.5c-2.3,0.7-4.2,2.4-5.3,4.5l-10.6,20.9l0,0     c-1.1,2-0.8,4.4,0.6,6.1s3.8,2.4,5.9,1.6h0.3c0.6-0.2,1.1-0.5,1.6-0.9c9.3-7.4,21-11.2,32.8-10.7c0.6,0,1.2,0,1.8-0.2l0,0     c2.1-0.6,3.5-2.4,3.8-4.5C459,592.3,457.9,590.2,456,589.1"
           style="fill:#000000" /><path
           id="Shape_193_"
           class="st1"
           d="M393.2,547.1l21.3,10.9c2.1,1.1,4.6,1.3,6.9,0.6c2.3-0.7,4.2-2.4,5.3-4.5l10.6-20.9l0,0     c0.7-1.3,0.9-2.9,0.4-4.3c-0.4-1.4-1.4-2.5-2.7-3.2c-1.3-0.7-2.8-0.8-4.2-0.3h-0.3c-0.6,0.2-1.1,0.6-1.6,0.9     c-9.2,7.4-20.8,11.2-32.7,10.7c-0.6,0-1.2,0.1-1.8,0.2l0,0c-2.8,0.9-4.4,4-3.5,6.8c0.4,1.2,1.3,2.3,2.4,2.9"
           style="fill:#000000" /><path
           id="Shape_194_"
           class="st1"
           d="M445.6,536.7L434.8,558c-1.1,2.2-1.3,4.7-0.5,6.9c0.8,2.3,2.4,4.2,4.5,5.3l20.9,10.6     c2,1.1,4.4,0.8,6.1-0.6s2.4-3.8,1.6-5.9V574c-0.2-0.6-0.6-1.1-0.9-1.6c-3.7-4.6-6.5-9.8-8.3-15.4c-1.8-5.6-2.7-11.5-2.4-17.4     c0-0.6,0-1.3-0.2-1.9l0,0c-0.4-1.4-1.4-2.5-2.7-3.2c-1.3-0.7-2.8-0.8-4.1-0.3c-1.3,0.4-2.3,1.3-3,2.4"
           style="fill:#000000" /><path
           id="Shape_195_"
           class="st1"
           d="M403.6,599.5l10.8-21.3c1.1-2.1,1.3-4.6,0.5-6.9c-0.7-2.3-2.4-4.2-4.5-5.3l-20.9-10.6     c-2-1.1-4.4-0.9-6.2,0.6c-1.7,1.5-2.4,3.9-1.6,6v0.3c0.2,0.6,0.6,1.1,0.9,1.6c7.4,9.2,11.2,20.9,10.7,32.7c0,0.6,0,1.2,0.2,1.8     l0,0c0.6,2,2.4,3.5,4.6,3.7c2.1,0.2,4.2-0.8,5.3-2.7"
           style="fill:#000000" /><path
           id="Shape_196_"
           class="st1"
           d="M429.3,562.8c-2.1-1.9-5.2-2.4-7.8-1.2c-2.6,1.2-4.2,3.9-4,6.7c0.2,2.9,2,5.3,4.7,6.3     c2.7,0.9,5.7,0.1,7.6-2C432.3,569.8,432.1,565.4,429.3,562.8"
           style="fill:#000000" /><path
           id="Shape_197_"
           class="st1"
           d="M330.2,176.1l-21.3-10.9c-2.1-1.1-4.6-1.3-6.9-0.5c-2.3,0.7-4.2,2.4-5.3,4.5L286,190.1l0,0     c-0.7,1.3-0.9,2.9-0.4,4.3c0.4,1.4,1.4,2.5,2.7,3.1c1.3,0.6,2.8,0.8,4.1,0.3h0.3c0.6-0.2,1.1-0.5,1.6-0.9     c9.2-7.4,20.9-11.2,32.7-10.7c0.6,0,1.2,0,1.8-0.2l0,0c2-0.7,3.5-2.4,3.7-4.6s-0.8-4.2-2.7-5.2"
           style="fill:#000000" /><path
           id="Shape_198_"
           class="st1"
           d="M267.4,134l21.3,10.9c2.1,1.1,4.6,1.3,6.9,0.5c2.3-0.7,4.2-2.4,5.3-4.5l10.6-20.9     c1.1-2,0.8-4.4-0.6-6.1c-1.5-1.7-3.8-2.4-5.9-1.6h-0.3c-0.6,0.2-1.1,0.6-1.6,0.9c-9.2,7.4-20.9,11.2-32.7,10.7     c-0.6,0-1.3,0.1-1.9,0.3l0,0c-2.8,0.9-4.4,4-3.5,6.8C265.5,132.3,266.3,133.3,267.4,134"
           style="fill:#000000" /><path
           id="Shape_199_"
           class="st1"
           d="M319.8,123.7L309,145c-1.1,2.1-1.3,4.6-0.5,6.9s2.4,4.2,4.5,5.3l20.9,10.6     c2,1.1,4.4,0.8,6.1-0.6c1.7-1.5,2.4-3.8,1.6-5.9v-0.3c-0.3-0.6-0.6-1.1-1-1.6c-7.4-9.2-11.2-20.9-10.7-32.7c0-0.6,0-1.3-0.2-1.9     l0,0c-0.4-1.4-1.4-2.5-2.7-3.2s-2.8-0.8-4.2-0.3c-1.2,0.4-2.3,1.3-2.9,2.4"
           style="fill:#000000" /><path
           id="Shape_200_"
           class="st1"
           d="M277.8,186.5l10.9-21.3c1.1-2.1,1.3-4.6,0.5-6.9c-0.7-2.3-2.4-4.2-4.5-5.3l-20.9-10.6     c-1.3-0.7-2.9-0.9-4.3-0.4c-2.8,0.9-4.4,4-3.5,6.9v0.3c0.2,0.6,0.6,1.1,0.9,1.6c7.4,9.2,11.2,20.9,10.7,32.7c0,0.6,0,1.2,0.2,1.8     l0,0c0.4,1.4,1.4,2.5,2.7,3.2s2.8,0.8,4.1,0.3c1.3-0.4,2.3-1.3,3-2.4"
           style="fill:#000000" /><path
           id="Shape_201_"
           class="st1"
           d="M303.5,149.9c-2.1-1.9-5.2-2.4-7.8-1.2c-2.6,1.2-4.2,3.9-4,6.7c0.2,2.9,2,5.3,4.7,6.3     c2.7,0.9,5.7,0.1,7.6-2C306.5,156.8,306.3,152.5,303.5,149.9"
           style="fill:#000000" /></g></g></g></svg>